<svg width="10" height="152" viewBox="0 0 10 152" fill="none" xmlns="http://www.w3.org/2000/svg">
<path d="M7.99999 145.341L7.99999 143.071L0.999986 145.691L0.999986 148.471L7.99999 151.091L7.99999 148.821L6.88999 148.451L6.88999 145.711L7.99999 145.341ZM4.98999 147.811L3.02999 147.151L3.02999 147.011L4.98999 146.351L4.98999 147.811ZM4.29999 137.327C3.93999 136.607 3.37999 136.337 2.83999 136.337C1.90999 136.337 0.999985 137.137 0.999985 138.527L0.999986 142.377L7.99999 142.377L7.99999 138.047C7.99999 136.627 7.00999 135.837 6.03999 135.837C5.30999 135.837 4.63999 136.257 4.37999 137.327L4.29999 137.327ZM2.69999 140.277L2.69999 139.027C2.69999 138.687 2.94999 138.517 3.18999 138.517C3.43999 138.517 3.68999 138.687 3.68999 139.027L3.68999 140.277L2.69999 140.277ZM6.29999 138.677L6.29999 140.277L5.18999 140.277L5.18999 138.677C5.18999 138.277 5.45999 138.077 5.73999 138.077C6.01999 138.077 6.29999 138.287 6.29999 138.677ZM8.15999 131.484C8.15999 129.194 6.69999 127.674 4.49999 127.674C2.29998 127.674 0.839985 129.194 0.839985 131.484C0.839986 133.774 2.29999 135.294 4.49999 135.294C6.69999 135.294 8.15999 133.774 8.15999 131.484ZM6.15999 131.484C6.15999 132.454 5.49999 133.094 4.49999 133.094C3.49999 133.094 2.83999 132.454 2.83999 131.484C2.83999 130.514 3.49999 129.874 4.49999 129.874C5.49999 129.874 6.15999 130.514 6.15999 131.484ZM8.15999 123.483C8.15999 121.343 7.13999 120.133 5.18998 120.133L0.999985 120.133L0.999985 122.233L4.90999 122.233C5.70999 122.233 6.12999 122.663 6.12999 123.483C6.12999 124.303 5.70999 124.733 4.90999 124.733L0.999985 124.733L0.999985 126.833L5.18999 126.833C7.13999 126.833 8.15999 125.623 8.15999 123.483ZM0.999984 112.788L0.999985 119.288L2.99999 119.288L2.99999 117.088L7.99999 117.088L7.99998 114.988L2.99998 114.988L2.99998 112.788L0.999984 112.788ZM7.99998 99.3188L7.99998 96.5088L4.64998 95.7788L4.64998 95.6388L7.99998 94.9088L7.99998 92.0988L0.999983 90.2788L0.999983 92.5988L5.86998 93.5188L5.86998 93.6588L0.999984 94.7788L0.999984 96.6388L5.86998 97.7588L5.86998 97.8988L0.999984 98.8188L0.999984 101.139L7.99998 99.3188ZM8.15998 86.2206C8.15998 83.9306 6.69998 82.4106 4.49998 82.4106C2.29998 82.4106 0.839983 83.9306 0.839983 86.2206C0.839984 88.5106 2.29998 90.0306 4.49998 90.0306C6.69998 90.0306 8.15998 88.5106 8.15998 86.2206ZM6.15998 86.2206C6.15998 87.1906 5.49998 87.8306 4.49998 87.8306C3.49998 87.8306 2.83998 87.1906 2.83998 86.2206C2.83998 85.2506 3.49998 84.6106 4.49998 84.6106C5.49998 84.6106 6.15998 85.2506 6.15998 86.2206ZM7.99998 81.4689L7.99998 79.3689L5.99998 79.3689L5.99998 78.4689L7.99998 77.2089L7.99998 74.9189L5.67998 76.4489C5.26998 75.5489 4.49998 75.0089 3.49998 75.0089C1.99998 75.0089 0.999983 76.2289 0.999983 78.0489L0.999983 81.4689L7.99998 81.4689ZM4.31998 79.3689L2.82998 79.3689L2.82998 77.9689C2.82998 77.4489 3.12998 77.1089 3.56998 77.1089C4.01998 77.1089 4.31998 77.4489 4.31998 77.9689L4.31998 79.3689ZM7.99998 74.1251L7.99998 72.0251L5.58998 72.0251L5.58998 71.0951L7.99998 69.7051L7.99998 67.2851L4.60998 69.3051L0.999982 67.2851L0.999982 69.6451L3.68998 71.0951L3.68998 72.0251L0.999983 72.0251L0.999983 74.1251L7.99998 74.1251ZM4.49998 52.7357C6.71998 52.7357 8.15998 51.2157 8.15998 48.7257C8.15998 47.7957 7.96998 46.9857 7.60998 46.2657L5.71998 46.2657C6.03998 47.1657 6.15998 47.7957 6.15998 48.5757C6.15998 49.8857 5.60998 50.5357 4.49998 50.5357C3.38998 50.5357 2.83998 49.8857 2.83998 48.5757C2.83998 47.7957 2.95998 47.1657 3.27998 46.2657L1.38998 46.2657C1.02998 46.9857 0.839982 47.7957 0.839982 48.7257C0.839982 51.2157 2.27998 52.7357 4.49998 52.7357ZM8.15998 41.7186C8.15998 39.4286 6.69998 37.9086 4.49998 37.9086C2.29998 37.9086 0.839981 39.4286 0.839982 41.7186C0.839982 44.0086 2.29998 45.5286 4.49998 45.5286C6.69998 45.5286 8.15998 44.0086 8.15998 41.7186ZM6.15998 41.7186C6.15998 42.6886 5.49998 43.3286 4.49998 43.3286C3.49998 43.3286 2.83998 42.6886 2.83998 41.7186C2.83998 40.7486 3.49998 40.1086 4.49998 40.1086C5.49998 40.1086 6.15998 40.7486 6.15998 41.7186ZM7.99998 36.9669L7.99998 34.8669L3.39998 34.8669L3.39998 34.6669L7.99998 33.4369L7.99998 29.9569L0.999981 29.9569L0.999981 32.0569L5.59998 32.0569L5.59998 32.2569L0.999981 33.4869L0.999981 36.9669L7.99998 36.9669ZM0.99998 22.515L0.999981 29.015L2.99998 29.015L2.99998 26.815L7.99998 26.815L7.99998 24.715L2.99998 24.715L2.99998 22.515L0.99998 22.515ZM7.99998 17.1771L7.99998 14.9071L0.99998 17.5271L0.99998 20.3071L7.99998 22.9271L7.99998 20.6571L6.88998 20.2871L6.88998 17.5471L7.99998 17.1771ZM4.98998 19.6471L3.02998 18.9871L3.02998 18.8471L4.98998 18.1871L4.98998 19.6471ZM4.49998 14.8646C6.71998 14.8646 8.15998 13.3446 8.15998 10.8546C8.15998 9.92457 7.96998 9.11457 7.60998 8.39457L5.71998 8.39457C6.03998 9.29457 6.15998 9.92457 6.15998 10.7046C6.15998 12.0146 5.60998 12.6646 4.49998 12.6646C3.38998 12.6646 2.83998 12.0146 2.83998 10.7046C2.83998 9.92457 2.95998 9.29457 3.27998 8.39457L1.38998 8.39457C1.02998 9.11457 0.83998 9.92457 0.83998 10.8546C0.83998 13.3446 2.27998 14.8646 4.49998 14.8646ZM0.999979 1.15754L0.99998 7.65754L2.99998 7.65754L2.99998 5.45754L7.99998 5.45754L7.99998 3.35754L2.99998 3.35754L2.99998 1.15754L0.999979 1.15754Z" fill="#FFB800"/>
<path d="M8.99999 151.161L8.99998 112.468L9.49998 112.468L9.49999 151.161L8.99999 151.161ZM8.99998 101.259L8.99998 67.0651L9.49998 67.0651L9.49998 101.259L8.99998 101.259ZM8.99998 53.0557L8.99998 0.837539L9.49998 0.837539L9.49998 53.0557L8.99998 53.0557Z" fill="#FFB800"/>
</svg>
