<svg width="586" height="218" viewBox="0 0 586 218" fill="none" xmlns="http://www.w3.org/2000/svg">
<path d="M59.048 108H115.64V-8.58307e-06H0.152V108H56.744V86.4H59.048V108ZM56.744 20.736H59.048V65.52H56.744V20.736ZM233.484 86.832V60.048H225.996C230.748 56.304 233.484 50.544 233.484 43.92V-8.58307e-06H117.996V108H211.884C225.708 108 233.484 99.504 233.484 86.832ZM174.588 20.016H176.892V50.544C176.892 51.84 176.46 52.56 175.596 52.56H174.588V20.016ZM174.588 87.84V71.28H176.892V85.392C176.892 86.688 176.46 87.84 175.596 87.84H174.588ZM235.555 108H329.443C343.267 108 351.043 99.504 351.043 86.832V-8.58307e-06H257.011C243.331 -8.58307e-06 235.555 8.49599 235.555 21.168V108ZM292.147 87.12V23.328C292.147 22.032 292.579 20.736 293.443 20.736H294.451V84.672C294.451 85.968 294.019 87.12 293.155 87.12H292.147ZM353.261 108H468.749V-8.58307e-06H412.157V87.264H409.853V-8.58307e-06H353.261V108ZM585.873 87.264V30.24H530.001V85.104C530.001 86.112 529.569 87.12 528.993 87.12H527.697V27.936H585.873V6.912H527.697V-8.58307e-06H471.105V108H564.849C577.233 108 585.873 98.928 585.873 87.264ZM0.152 218H115.64V110H59.048V197.264H56.744V110H0.152V218ZM117.852 218H211.164C224.844 218 232.62 209.504 232.62 196.832V173.36H174.444V133.328C174.444 132.032 174.876 130.736 175.74 130.736H176.748V171.056H232.62V110H139.74C126.06 110 117.852 118.496 117.852 131.168V194.24H176.028V194.672C176.028 195.68 175.596 196.544 174.732 196.544H117.852V218Z" fill="#342F2F"/>
</svg>
