<svg width="1440" height="1024" viewBox="0 0 1440 1024" fill="none" xmlns="http://www.w3.org/2000/svg">
<path opacity="0.2" d="M-154.864 48H-140.824L-136 30H-112.24L-109.144 18.408H-132.904L-130.6 9.84H-104.32L-101.008 -2.4H-141.256L-154.864 48ZM-107.535 48H-93.5672L-80.0312 -2.4H-93.9992L-107.535 48ZM-84.4812 48H-70.5852L-62.8092 18.912L-49.2012 48H-36.9612L-23.4252 -2.4H-37.2492L-44.8092 25.608L-57.9132 -2.4H-70.8732L-84.4812 48ZM-32.6952 48H-17.5032L-11.4552 38.928H7.98481L9.20881 48H23.8968L16.0488 -2.76H2.36881L-32.6952 48ZM-4.39919 28.056L5.03281 13.656L6.90481 28.056H-4.39919ZM27.5969 48H65.6849L68.9969 35.76H44.9489L55.1729 -2.4H41.2049L27.5969 48ZM72.1047 48H86.1448L90.9688 30H114.729L117.825 18.408H94.0648L96.3688 9.84H122.649L125.961 -2.4H85.7128L72.1047 48ZM119.433 48H133.402L146.938 -2.4H132.97L119.433 48ZM142.488 48H156.384L164.16 18.912L177.768 48H190.008L203.544 -2.4H189.72L182.16 25.608L169.056 -2.4H156.096L142.488 48ZM194.274 48H209.466L215.514 38.928H234.954L236.178 48H250.866L243.018 -2.76H229.338L194.274 48ZM222.57 28.056L232.002 13.656L233.874 28.056H222.57ZM254.566 48H292.654L295.966 35.76H271.918L282.142 -2.4H268.174L254.566 48ZM299.073 48H313.114L317.938 30H341.698L344.794 18.408H321.034L323.338 9.84H349.618L352.93 -2.4H312.682L299.073 48ZM346.402 48H360.37L373.906 -2.4H359.938L346.402 48ZM369.456 48H383.352L391.128 18.912L404.736 48H416.976L430.512 -2.4H416.688L409.128 25.608L396.024 -2.4H383.064L369.456 48ZM421.242 48H436.434L442.482 38.928H461.922L463.146 48H477.834L469.986 -2.76H456.306L421.242 48ZM449.538 28.056L458.97 13.656L460.842 28.056H449.538ZM481.534 48H519.622L522.934 35.76H498.886L509.11 -2.4H495.142L481.534 48ZM526.042 48H540.082L544.906 30H568.666L571.762 18.408H548.002L550.306 9.84H576.586L579.898 -2.4H539.65L526.042 48ZM573.371 48H587.339L600.875 -2.4H586.907L573.371 48ZM596.425 48H610.321L618.097 18.912L631.705 48H643.945L657.481 -2.4H643.657L636.097 25.608L622.993 -2.4H610.033L596.425 48ZM648.211 48H663.403L669.451 38.928H688.891L690.115 48H704.803L696.955 -2.76H683.275L648.211 48ZM676.507 28.056L685.939 13.656L687.811 28.056H676.507ZM708.503 48H746.591L749.903 35.76H725.855L736.079 -2.4H722.111L708.503 48ZM753.011 48H767.051L771.875 30H795.635L798.731 18.408H774.971L777.275 9.84H803.555L806.867 -2.4H766.619L753.011 48ZM800.34 48H814.308L827.844 -2.4H813.876L800.34 48ZM823.394 48H837.29L845.066 18.912L858.674 48H870.914L884.45 -2.4H870.626L863.066 25.608L849.962 -2.4H837.002L823.394 48ZM875.18 48H890.372L896.42 38.928H915.86L917.084 48H931.772L923.924 -2.76H910.244L875.18 48ZM903.476 28.056L912.908 13.656L914.78 28.056H903.476ZM935.472 48H973.56L976.872 35.76H952.824L963.048 -2.4H949.08L935.472 48ZM979.98 48H994.02L998.844 30H1022.6L1025.7 18.408H1001.94L1004.24 9.84H1030.52L1033.84 -2.4H993.588L979.98 48ZM1027.31 48H1041.28L1054.81 -2.4H1040.84L1027.31 48ZM1050.36 48H1064.26L1072.03 18.912L1085.64 48H1097.88L1111.42 -2.4H1097.59L1090.03 25.608L1076.93 -2.4H1063.97L1050.36 48ZM1102.15 48H1117.34L1123.39 38.928H1142.83L1144.05 48H1158.74L1150.89 -2.76H1137.21L1102.15 48ZM1130.44 28.056L1139.88 13.656L1141.75 28.056H1130.44ZM1162.44 48H1200.53L1203.84 35.76H1179.79L1190.02 -2.4H1176.05L1162.44 48ZM1206.95 48H1220.99L1225.81 30H1249.57L1252.67 18.408H1228.91L1231.21 9.84H1257.49L1260.8 -2.4H1220.56L1206.95 48ZM1254.28 48H1268.25L1281.78 -2.4H1267.81L1254.28 48ZM1277.33 48H1291.23L1299 18.912L1312.61 48H1324.85L1338.39 -2.4H1324.56L1317 25.608L1303.9 -2.4H1290.94L1277.33 48ZM1329.12 48H1344.31L1350.36 38.928H1369.8L1371.02 48H1385.71L1377.86 -2.76H1364.18L1329.12 48ZM1357.41 28.056L1366.85 13.656L1368.72 28.056H1357.41ZM1389.41 48H1427.5L1430.81 35.76H1406.76L1416.99 -2.4H1403.02L1389.41 48ZM1433.92 48H1447.96L1452.78 30H1476.54L1479.64 18.408H1455.88L1458.18 9.84H1484.46L1487.77 -2.4H1447.53L1433.92 48ZM1481.25 48H1495.21L1508.75 -2.4H1494.78L1481.25 48ZM1504.3 48H1518.2L1525.97 18.912L1539.58 48H1551.82L1565.36 -2.4H1551.53L1543.97 25.608L1530.87 -2.4H1517.91L1504.3 48ZM1556.09 48H1571.28L1577.33 38.928H1596.77L1597.99 48H1612.68L1604.83 -2.76H1591.15L1556.09 48ZM1584.38 28.056L1593.81 13.656L1595.69 28.056H1584.38ZM1616.38 48H1654.47L1657.78 35.76H1633.73L1643.95 -2.4H1629.99L1616.38 48Z" fill="#FF0000"/>
<path opacity="0.2" d="M-70.864 124H-56.824L-52 106H-28.24L-25.144 94.408H-48.904L-46.6 85.84H-20.32L-17.008 73.6H-57.256L-70.864 124ZM-23.5353 124H-9.56725L3.96875 73.6H-9.99925L-23.5353 124ZM-0.481188 124H13.4148L21.1908 94.912L34.7988 124H47.0388L60.5748 73.6H46.7508L39.1908 101.608L26.0868 73.6H13.1268L-0.481188 124ZM51.3048 124H66.4968L72.5448 114.928H91.9848L93.2088 124H107.897L100.049 73.24H86.3688L51.3048 124ZM79.6008 104.056L89.0328 89.656L90.9048 104.056H79.6008ZM111.597 124H149.685L152.997 111.76H128.949L139.173 73.6H125.205L111.597 124ZM156.105 124H170.145L174.969 106H198.729L201.825 94.408H178.065L180.369 85.84H206.649L209.961 73.6H169.713L156.105 124ZM203.433 124H217.402L230.938 73.6H216.97L203.433 124ZM226.488 124H240.384L248.16 94.912L261.768 124H274.008L287.544 73.6H273.72L266.16 101.608L253.056 73.6H240.096L226.488 124ZM278.274 124H293.466L299.514 114.928H318.954L320.178 124H334.866L327.018 73.24H313.338L278.274 124ZM306.57 104.056L316.002 89.656L317.874 104.056H306.57ZM338.566 124H376.654L379.966 111.76H355.918L366.142 73.6H352.174L338.566 124ZM383.073 124H397.114L401.938 106H425.698L428.794 94.408H405.034L407.338 85.84H433.618L436.93 73.6H396.682L383.073 124ZM430.402 124H444.37L457.906 73.6H443.938L430.402 124ZM453.456 124H467.352L475.128 94.912L488.736 124H500.976L514.512 73.6H500.688L493.128 101.608L480.024 73.6H467.064L453.456 124ZM505.242 124H520.434L526.482 114.928H545.922L547.146 124H561.834L553.986 73.24H540.306L505.242 124ZM533.538 104.056L542.97 89.656L544.842 104.056H533.538ZM565.534 124H603.622L606.934 111.76H582.886L593.11 73.6H579.142L565.534 124ZM610.042 124H624.082L628.906 106H652.666L655.762 94.408H632.002L634.306 85.84H660.586L663.898 73.6H623.65L610.042 124ZM657.371 124H671.339L684.875 73.6H670.907L657.371 124ZM680.425 124H694.321L702.097 94.912L715.705 124H727.945L741.481 73.6H727.657L720.097 101.608L706.993 73.6H694.033L680.425 124ZM732.211 124H747.403L753.451 114.928H772.891L774.115 124H788.803L780.955 73.24H767.275L732.211 124ZM760.507 104.056L769.939 89.656L771.811 104.056H760.507ZM792.503 124H830.591L833.903 111.76H809.855L820.079 73.6H806.111L792.503 124ZM837.011 124H851.051L855.875 106H879.635L882.731 94.408H858.971L861.275 85.84H887.555L890.867 73.6H850.619L837.011 124ZM884.34 124H898.308L911.844 73.6H897.876L884.34 124ZM907.394 124H921.29L929.066 94.912L942.674 124H954.914L968.45 73.6H954.626L947.066 101.608L933.962 73.6H921.002L907.394 124ZM959.18 124H974.372L980.42 114.928H999.86L1001.08 124H1015.77L1007.92 73.24H994.244L959.18 124ZM987.476 104.056L996.908 89.656L998.78 104.056H987.476ZM1019.47 124H1057.56L1060.87 111.76H1036.82L1047.05 73.6H1033.08L1019.47 124ZM1063.98 124H1078.02L1082.84 106H1106.6L1109.7 94.408H1085.94L1088.24 85.84H1114.52L1117.84 73.6H1077.59L1063.98 124ZM1111.31 124H1125.28L1138.81 73.6H1124.84L1111.31 124ZM1134.36 124H1148.26L1156.03 94.912L1169.64 124H1181.88L1195.42 73.6H1181.59L1174.03 101.608L1160.93 73.6H1147.97L1134.36 124ZM1186.15 124H1201.34L1207.39 114.928H1226.83L1228.05 124H1242.74L1234.89 73.24H1221.21L1186.15 124ZM1214.44 104.056L1223.88 89.656L1225.75 104.056H1214.44ZM1246.44 124H1284.53L1287.84 111.76H1263.79L1274.02 73.6H1260.05L1246.44 124ZM1290.95 124H1304.99L1309.81 106H1333.57L1336.67 94.408H1312.91L1315.21 85.84H1341.49L1344.8 73.6H1304.56L1290.95 124ZM1338.28 124H1352.25L1365.78 73.6H1351.81L1338.28 124ZM1361.33 124H1375.23L1383 94.912L1396.61 124H1408.85L1422.39 73.6H1408.56L1401 101.608L1387.9 73.6H1374.94L1361.33 124ZM1413.12 124H1428.31L1434.36 114.928H1453.8L1455.02 124H1469.71L1461.86 73.24H1448.18L1413.12 124ZM1441.41 104.056L1450.85 89.656L1452.72 104.056H1441.41ZM1473.41 124H1511.5L1514.81 111.76H1490.76L1500.99 73.6H1487.02L1473.41 124ZM1517.92 124H1531.96L1536.78 106H1560.54L1563.64 94.408H1539.88L1542.18 85.84H1568.46L1571.77 73.6H1531.53L1517.92 124ZM1565.25 124H1579.21L1592.75 73.6H1578.78L1565.25 124ZM1588.3 124H1602.2L1609.97 94.912L1623.58 124H1635.82L1649.36 73.6H1635.53L1627.97 101.608L1614.87 73.6H1601.91L1588.3 124ZM1640.09 124H1655.28L1661.33 114.928H1680.77L1681.99 124H1696.68L1688.83 73.24H1675.15L1640.09 124ZM1668.38 104.056L1677.81 89.656L1679.69 104.056H1668.38ZM1700.38 124H1738.47L1741.78 111.76H1717.73L1727.95 73.6H1713.99L1700.38 124Z" fill="#FF0000"/>
<path opacity="0.2" d="M-237.864 200H-223.824L-219 182H-195.24L-192.144 170.408H-215.904L-213.6 161.84H-187.32L-184.008 149.6H-224.256L-237.864 200ZM-190.535 200H-176.567L-163.031 149.6H-176.999L-190.535 200ZM-167.481 200H-153.585L-145.809 170.912L-132.201 200H-119.961L-106.425 149.6H-120.249L-127.809 177.608L-140.913 149.6H-153.873L-167.481 200ZM-115.695 200H-100.503L-94.4552 190.928H-75.0152L-73.7912 200H-59.1032L-66.9512 149.24H-80.6312L-115.695 200ZM-87.3992 180.056L-77.9672 165.656L-76.0952 180.056H-87.3992ZM-55.4031 200H-17.3151L-14.0031 187.76H-38.0511L-27.8271 149.6H-41.7951L-55.4031 200ZM-10.8953 200H3.14475L7.96875 182H31.7288L34.8248 170.408H11.0648L13.3688 161.84H39.6488L42.9608 149.6H2.71275L-10.8953 200ZM36.4335 200H50.4015L63.9375 149.6H49.9695L36.4335 200ZM59.4876 200H73.3836L81.1596 170.912L94.7676 200H107.008L120.544 149.6H106.72L99.1596 177.608L86.0556 149.6H73.0956L59.4876 200ZM111.274 200H126.466L132.514 190.928H151.954L153.178 200H167.866L160.018 149.24H146.338L111.274 200ZM139.57 180.056L149.002 165.656L150.874 180.056H139.57ZM171.566 200H209.654L212.966 187.76H188.918L199.142 149.6H185.174L171.566 200ZM216.073 200H230.114L234.938 182H258.698L261.794 170.408H238.034L240.338 161.84H266.618L269.93 149.6H229.682L216.073 200ZM263.402 200H277.37L290.906 149.6H276.938L263.402 200ZM286.456 200H300.352L308.128 170.912L321.736 200H333.976L347.512 149.6H333.688L326.128 177.608L313.024 149.6H300.064L286.456 200ZM338.242 200H353.434L359.482 190.928H378.922L380.146 200H394.834L386.986 149.24H373.306L338.242 200ZM366.538 180.056L375.97 165.656L377.842 180.056H366.538ZM398.534 200H436.622L439.934 187.76H415.886L426.11 149.6H412.142L398.534 200ZM443.042 200H457.082L461.906 182H485.666L488.762 170.408H465.002L467.306 161.84H493.586L496.898 149.6H456.65L443.042 200ZM490.371 200H504.339L517.875 149.6H503.907L490.371 200ZM513.425 200H527.321L535.097 170.912L548.705 200H560.945L574.481 149.6H560.657L553.097 177.608L539.993 149.6H527.033L513.425 200ZM565.211 200H580.403L586.451 190.928H605.891L607.115 200H621.803L613.955 149.24H600.275L565.211 200ZM593.507 180.056L602.939 165.656L604.811 180.056H593.507ZM625.503 200H663.591L666.903 187.76H642.855L653.079 149.6H639.111L625.503 200ZM670.011 200H684.051L688.875 182H712.635L715.731 170.408H691.971L694.275 161.84H720.555L723.867 149.6H683.619L670.011 200ZM717.34 200H731.308L744.844 149.6H730.876L717.34 200ZM740.394 200H754.29L762.066 170.912L775.674 200H787.914L801.45 149.6H787.626L780.066 177.608L766.962 149.6H754.002L740.394 200ZM792.18 200H807.372L813.42 190.928H832.86L834.084 200H848.772L840.924 149.24H827.244L792.18 200ZM820.476 180.056L829.908 165.656L831.78 180.056H820.476ZM852.472 200H890.56L893.872 187.76H869.824L880.048 149.6H866.08L852.472 200ZM896.98 200H911.02L915.844 182H939.604L942.7 170.408H918.94L921.244 161.84H947.524L950.836 149.6H910.588L896.98 200ZM944.308 200H958.277L971.813 149.6H957.845L944.308 200ZM967.363 200H981.259L989.035 170.912L1002.64 200H1014.88L1028.42 149.6H1014.59L1007.03 177.608L993.931 149.6H980.971L967.363 200ZM1019.15 200H1034.34L1040.39 190.928H1059.83L1061.05 200H1075.74L1067.89 149.24H1054.21L1019.15 200ZM1047.44 180.056L1056.88 165.656L1058.75 180.056H1047.44ZM1079.44 200H1117.53L1120.84 187.76H1096.79L1107.02 149.6H1093.05L1079.44 200ZM1123.95 200H1137.99L1142.81 182H1166.57L1169.67 170.408H1145.91L1148.21 161.84H1174.49L1177.8 149.6H1137.56L1123.95 200ZM1171.28 200H1185.25L1198.78 149.6H1184.81L1171.28 200ZM1194.33 200H1208.23L1216 170.912L1229.61 200H1241.85L1255.39 149.6H1241.56L1234 177.608L1220.9 149.6H1207.94L1194.33 200ZM1246.12 200H1261.31L1267.36 190.928H1286.8L1288.02 200H1302.71L1294.86 149.24H1281.18L1246.12 200ZM1274.41 180.056L1283.85 165.656L1285.72 180.056H1274.41ZM1306.41 200H1344.5L1347.81 187.76H1323.76L1333.99 149.6H1320.02L1306.41 200ZM1350.92 200H1364.96L1369.78 182H1393.54L1396.64 170.408H1372.88L1375.18 161.84H1401.46L1404.77 149.6H1364.53L1350.92 200ZM1398.25 200H1412.21L1425.75 149.6H1411.78L1398.25 200ZM1421.3 200H1435.2L1442.97 170.912L1456.58 200H1468.82L1482.36 149.6H1468.53L1460.97 177.608L1447.87 149.6H1434.91L1421.3 200ZM1473.09 200H1488.28L1494.33 190.928H1513.77L1514.99 200H1529.68L1521.83 149.24H1508.15L1473.09 200ZM1501.38 180.056L1510.81 165.656L1512.69 180.056H1501.38ZM1533.38 200H1571.47L1574.78 187.76H1550.73L1560.95 149.6H1546.99L1533.38 200Z" fill="#FF0000"/>
<path opacity="0.2" d="M-154.864 276H-140.824L-136 258H-112.24L-109.144 246.408H-132.904L-130.6 237.84H-104.32L-101.008 225.6H-141.256L-154.864 276ZM-107.535 276H-93.5672L-80.0312 225.6H-93.9992L-107.535 276ZM-84.4812 276H-70.5852L-62.8092 246.912L-49.2012 276H-36.9612L-23.4252 225.6H-37.2492L-44.8092 253.608L-57.9132 225.6H-70.8732L-84.4812 276ZM-32.6952 276H-17.5032L-11.4552 266.928H7.98481L9.20881 276H23.8968L16.0488 225.24H2.36881L-32.6952 276ZM-4.39919 256.056L5.03281 241.656L6.90481 256.056H-4.39919ZM27.5969 276H65.6849L68.9969 263.76H44.9489L55.1729 225.6H41.2049L27.5969 276ZM72.1047 276H86.1448L90.9688 258H114.729L117.825 246.408H94.0648L96.3688 237.84H122.649L125.961 225.6H85.7128L72.1047 276ZM119.433 276H133.402L146.938 225.6H132.97L119.433 276ZM142.488 276H156.384L164.16 246.912L177.768 276H190.008L203.544 225.6H189.72L182.16 253.608L169.056 225.6H156.096L142.488 276ZM194.274 276H209.466L215.514 266.928H234.954L236.178 276H250.866L243.018 225.24H229.338L194.274 276ZM222.57 256.056L232.002 241.656L233.874 256.056H222.57ZM254.566 276H292.654L295.966 263.76H271.918L282.142 225.6H268.174L254.566 276ZM299.073 276H313.114L317.938 258H341.698L344.794 246.408H321.034L323.338 237.84H349.618L352.93 225.6H312.682L299.073 276ZM346.402 276H360.37L373.906 225.6H359.938L346.402 276ZM369.456 276H383.352L391.128 246.912L404.736 276H416.976L430.512 225.6H416.688L409.128 253.608L396.024 225.6H383.064L369.456 276ZM421.242 276H436.434L442.482 266.928H461.922L463.146 276H477.834L469.986 225.24H456.306L421.242 276ZM449.538 256.056L458.97 241.656L460.842 256.056H449.538ZM481.534 276H519.622L522.934 263.76H498.886L509.11 225.6H495.142L481.534 276ZM526.042 276H540.082L544.906 258H568.666L571.762 246.408H548.002L550.306 237.84H576.586L579.898 225.6H539.65L526.042 276ZM573.371 276H587.339L600.875 225.6H586.907L573.371 276ZM596.425 276H610.321L618.097 246.912L631.705 276H643.945L657.481 225.6H643.657L636.097 253.608L622.993 225.6H610.033L596.425 276ZM648.211 276H663.403L669.451 266.928H688.891L690.115 276H704.803L696.955 225.24H683.275L648.211 276ZM676.507 256.056L685.939 241.656L687.811 256.056H676.507ZM708.503 276H746.591L749.903 263.76H725.855L736.079 225.6H722.111L708.503 276ZM753.011 276H767.051L771.875 258H795.635L798.731 246.408H774.971L777.275 237.84H803.555L806.867 225.6H766.619L753.011 276ZM800.34 276H814.308L827.844 225.6H813.876L800.34 276ZM823.394 276H837.29L845.066 246.912L858.674 276H870.914L884.45 225.6H870.626L863.066 253.608L849.962 225.6H837.002L823.394 276ZM875.18 276H890.372L896.42 266.928H915.86L917.084 276H931.772L923.924 225.24H910.244L875.18 276ZM903.476 256.056L912.908 241.656L914.78 256.056H903.476ZM935.472 276H973.56L976.872 263.76H952.824L963.048 225.6H949.08L935.472 276ZM979.98 276H994.02L998.844 258H1022.6L1025.7 246.408H1001.94L1004.24 237.84H1030.52L1033.84 225.6H993.588L979.98 276ZM1027.31 276H1041.28L1054.81 225.6H1040.84L1027.31 276ZM1050.36 276H1064.26L1072.03 246.912L1085.64 276H1097.88L1111.42 225.6H1097.59L1090.03 253.608L1076.93 225.6H1063.97L1050.36 276ZM1102.15 276H1117.34L1123.39 266.928H1142.83L1144.05 276H1158.74L1150.89 225.24H1137.21L1102.15 276ZM1130.44 256.056L1139.88 241.656L1141.75 256.056H1130.44ZM1162.44 276H1200.53L1203.84 263.76H1179.79L1190.02 225.6H1176.05L1162.44 276ZM1206.95 276H1220.99L1225.81 258H1249.57L1252.67 246.408H1228.91L1231.21 237.84H1257.49L1260.8 225.6H1220.56L1206.95 276ZM1254.28 276H1268.25L1281.78 225.6H1267.81L1254.28 276ZM1277.33 276H1291.23L1299 246.912L1312.61 276H1324.85L1338.39 225.6H1324.56L1317 253.608L1303.9 225.6H1290.94L1277.33 276ZM1329.12 276H1344.31L1350.36 266.928H1369.8L1371.02 276H1385.71L1377.86 225.24H1364.18L1329.12 276ZM1357.41 256.056L1366.85 241.656L1368.72 256.056H1357.41ZM1389.41 276H1427.5L1430.81 263.76H1406.76L1416.99 225.6H1403.02L1389.41 276ZM1433.92 276H1447.96L1452.78 258H1476.54L1479.64 246.408H1455.88L1458.18 237.84H1484.46L1487.77 225.6H1447.53L1433.92 276ZM1481.25 276H1495.21L1508.75 225.6H1494.78L1481.25 276ZM1504.3 276H1518.2L1525.97 246.912L1539.58 276H1551.82L1565.36 225.6H1551.53L1543.97 253.608L1530.87 225.6H1517.91L1504.3 276ZM1556.09 276H1571.28L1577.33 266.928H1596.77L1597.99 276H1612.68L1604.83 225.24H1591.15L1556.09 276ZM1584.38 256.056L1593.81 241.656L1595.69 256.056H1584.38ZM1616.38 276H1654.47L1657.78 263.76H1633.73L1643.95 225.6H1629.99L1616.38 276Z" fill="#FF0000"/>
<path opacity="0.2" d="M-70.864 352H-56.824L-52 334H-28.24L-25.144 322.408H-48.904L-46.6 313.84H-20.32L-17.008 301.6H-57.256L-70.864 352ZM-23.5353 352H-9.56725L3.96875 301.6H-9.99925L-23.5353 352ZM-0.481188 352H13.4148L21.1908 322.912L34.7988 352H47.0388L60.5748 301.6H46.7508L39.1908 329.608L26.0868 301.6H13.1268L-0.481188 352ZM51.3048 352H66.4968L72.5448 342.928H91.9848L93.2088 352H107.897L100.049 301.24H86.3688L51.3048 352ZM79.6008 332.056L89.0328 317.656L90.9048 332.056H79.6008ZM111.597 352H149.685L152.997 339.76H128.949L139.173 301.6H125.205L111.597 352ZM156.105 352H170.145L174.969 334H198.729L201.825 322.408H178.065L180.369 313.84H206.649L209.961 301.6H169.713L156.105 352ZM203.433 352H217.402L230.938 301.6H216.97L203.433 352ZM226.488 352H240.384L248.16 322.912L261.768 352H274.008L287.544 301.6H273.72L266.16 329.608L253.056 301.6H240.096L226.488 352ZM278.274 352H293.466L299.514 342.928H318.954L320.178 352H334.866L327.018 301.24H313.338L278.274 352ZM306.57 332.056L316.002 317.656L317.874 332.056H306.57ZM338.566 352H376.654L379.966 339.76H355.918L366.142 301.6H352.174L338.566 352ZM383.073 352H397.114L401.938 334H425.698L428.794 322.408H405.034L407.338 313.84H433.618L436.93 301.6H396.682L383.073 352ZM430.402 352H444.37L457.906 301.6H443.938L430.402 352ZM453.456 352H467.352L475.128 322.912L488.736 352H500.976L514.512 301.6H500.688L493.128 329.608L480.024 301.6H467.064L453.456 352ZM505.242 352H520.434L526.482 342.928H545.922L547.146 352H561.834L553.986 301.24H540.306L505.242 352ZM533.538 332.056L542.97 317.656L544.842 332.056H533.538ZM565.534 352H603.622L606.934 339.76H582.886L593.11 301.6H579.142L565.534 352ZM610.042 352H624.082L628.906 334H652.666L655.762 322.408H632.002L634.306 313.84H660.586L663.898 301.6H623.65L610.042 352ZM657.371 352H671.339L684.875 301.6H670.907L657.371 352ZM680.425 352H694.321L702.097 322.912L715.705 352H727.945L741.481 301.6H727.657L720.097 329.608L706.993 301.6H694.033L680.425 352ZM732.211 352H747.403L753.451 342.928H772.891L774.115 352H788.803L780.955 301.24H767.275L732.211 352ZM760.507 332.056L769.939 317.656L771.811 332.056H760.507ZM792.503 352H830.591L833.903 339.76H809.855L820.079 301.6H806.111L792.503 352ZM837.011 352H851.051L855.875 334H879.635L882.731 322.408H858.971L861.275 313.84H887.555L890.867 301.6H850.619L837.011 352ZM884.34 352H898.308L911.844 301.6H897.876L884.34 352ZM907.394 352H921.29L929.066 322.912L942.674 352H954.914L968.45 301.6H954.626L947.066 329.608L933.962 301.6H921.002L907.394 352ZM959.18 352H974.372L980.42 342.928H999.86L1001.08 352H1015.77L1007.92 301.24H994.244L959.18 352ZM987.476 332.056L996.908 317.656L998.78 332.056H987.476ZM1019.47 352H1057.56L1060.87 339.76H1036.82L1047.05 301.6H1033.08L1019.47 352ZM1063.98 352H1078.02L1082.84 334H1106.6L1109.7 322.408H1085.94L1088.24 313.84H1114.52L1117.84 301.6H1077.59L1063.98 352ZM1111.31 352H1125.28L1138.81 301.6H1124.84L1111.31 352ZM1134.36 352H1148.26L1156.03 322.912L1169.64 352H1181.88L1195.42 301.6H1181.59L1174.03 329.608L1160.93 301.6H1147.97L1134.36 352ZM1186.15 352H1201.34L1207.39 342.928H1226.83L1228.05 352H1242.74L1234.89 301.24H1221.21L1186.15 352ZM1214.44 332.056L1223.88 317.656L1225.75 332.056H1214.44ZM1246.44 352H1284.53L1287.84 339.76H1263.79L1274.02 301.6H1260.05L1246.44 352ZM1290.95 352H1304.99L1309.81 334H1333.57L1336.67 322.408H1312.91L1315.21 313.84H1341.49L1344.8 301.6H1304.56L1290.95 352ZM1338.28 352H1352.25L1365.78 301.6H1351.81L1338.28 352ZM1361.33 352H1375.23L1383 322.912L1396.61 352H1408.85L1422.39 301.6H1408.56L1401 329.608L1387.9 301.6H1374.94L1361.33 352ZM1413.12 352H1428.31L1434.36 342.928H1453.8L1455.02 352H1469.71L1461.86 301.24H1448.18L1413.12 352ZM1441.41 332.056L1450.85 317.656L1452.72 332.056H1441.41ZM1473.41 352H1511.5L1514.81 339.76H1490.76L1500.99 301.6H1487.02L1473.41 352ZM1517.92 352H1531.96L1536.78 334H1560.54L1563.64 322.408H1539.88L1542.18 313.84H1568.46L1571.77 301.6H1531.53L1517.92 352ZM1565.25 352H1579.21L1592.75 301.6H1578.78L1565.25 352ZM1588.3 352H1602.2L1609.97 322.912L1623.58 352H1635.82L1649.36 301.6H1635.53L1627.97 329.608L1614.87 301.6H1601.91L1588.3 352ZM1640.09 352H1655.28L1661.33 342.928H1680.77L1681.99 352H1696.68L1688.83 301.24H1675.15L1640.09 352ZM1668.38 332.056L1677.81 317.656L1679.69 332.056H1668.38ZM1700.38 352H1738.47L1741.78 339.76H1717.73L1727.95 301.6H1713.99L1700.38 352Z" fill="#FF0000"/>
<path opacity="0.2" d="M-237.864 428H-223.824L-219 410H-195.24L-192.144 398.408H-215.904L-213.6 389.84H-187.32L-184.008 377.6H-224.256L-237.864 428ZM-190.535 428H-176.567L-163.031 377.6H-176.999L-190.535 428ZM-167.481 428H-153.585L-145.809 398.912L-132.201 428H-119.961L-106.425 377.6H-120.249L-127.809 405.608L-140.913 377.6H-153.873L-167.481 428ZM-115.695 428H-100.503L-94.4552 418.928H-75.0152L-73.7912 428H-59.1032L-66.9512 377.24H-80.6312L-115.695 428ZM-87.3992 408.056L-77.9672 393.656L-76.0952 408.056H-87.3992ZM-55.4031 428H-17.3151L-14.0031 415.76H-38.0511L-27.8271 377.6H-41.7951L-55.4031 428ZM-10.8953 428H3.14475L7.96875 410H31.7288L34.8248 398.408H11.0648L13.3688 389.84H39.6488L42.9608 377.6H2.71275L-10.8953 428ZM36.4335 428H50.4015L63.9375 377.6H49.9695L36.4335 428ZM59.4876 428H73.3836L81.1596 398.912L94.7676 428H107.008L120.544 377.6H106.72L99.1596 405.608L86.0556 377.6H73.0956L59.4876 428ZM111.274 428H126.466L132.514 418.928H151.954L153.178 428H167.866L160.018 377.24H146.338L111.274 428ZM139.57 408.056L149.002 393.656L150.874 408.056H139.57ZM171.566 428H209.654L212.966 415.76H188.918L199.142 377.6H185.174L171.566 428ZM216.073 428H230.114L234.938 410H258.698L261.794 398.408H238.034L240.338 389.84H266.618L269.93 377.6H229.682L216.073 428ZM263.402 428H277.37L290.906 377.6H276.938L263.402 428ZM286.456 428H300.352L308.128 398.912L321.736 428H333.976L347.512 377.6H333.688L326.128 405.608L313.024 377.6H300.064L286.456 428ZM338.242 428H353.434L359.482 418.928H378.922L380.146 428H394.834L386.986 377.24H373.306L338.242 428ZM366.538 408.056L375.97 393.656L377.842 408.056H366.538ZM398.534 428H436.622L439.934 415.76H415.886L426.11 377.6H412.142L398.534 428ZM443.042 428H457.082L461.906 410H485.666L488.762 398.408H465.002L467.306 389.84H493.586L496.898 377.6H456.65L443.042 428ZM490.371 428H504.339L517.875 377.6H503.907L490.371 428ZM513.425 428H527.321L535.097 398.912L548.705 428H560.945L574.481 377.6H560.657L553.097 405.608L539.993 377.6H527.033L513.425 428ZM565.211 428H580.403L586.451 418.928H605.891L607.115 428H621.803L613.955 377.24H600.275L565.211 428ZM593.507 408.056L602.939 393.656L604.811 408.056H593.507ZM625.503 428H663.591L666.903 415.76H642.855L653.079 377.6H639.111L625.503 428ZM670.011 428H684.051L688.875 410H712.635L715.731 398.408H691.971L694.275 389.84H720.555L723.867 377.6H683.619L670.011 428ZM717.34 428H731.308L744.844 377.6H730.876L717.34 428ZM740.394 428H754.29L762.066 398.912L775.674 428H787.914L801.45 377.6H787.626L780.066 405.608L766.962 377.6H754.002L740.394 428ZM792.18 428H807.372L813.42 418.928H832.86L834.084 428H848.772L840.924 377.24H827.244L792.18 428ZM820.476 408.056L829.908 393.656L831.78 408.056H820.476ZM852.472 428H890.56L893.872 415.76H869.824L880.048 377.6H866.08L852.472 428ZM896.98 428H911.02L915.844 410H939.604L942.7 398.408H918.94L921.244 389.84H947.524L950.836 377.6H910.588L896.98 428ZM944.308 428H958.277L971.813 377.6H957.845L944.308 428ZM967.363 428H981.259L989.035 398.912L1002.64 428H1014.88L1028.42 377.6H1014.59L1007.03 405.608L993.931 377.6H980.971L967.363 428ZM1019.15 428H1034.34L1040.39 418.928H1059.83L1061.05 428H1075.74L1067.89 377.24H1054.21L1019.15 428ZM1047.44 408.056L1056.88 393.656L1058.75 408.056H1047.44ZM1079.44 428H1117.53L1120.84 415.76H1096.79L1107.02 377.6H1093.05L1079.44 428ZM1123.95 428H1137.99L1142.81 410H1166.57L1169.67 398.408H1145.91L1148.21 389.84H1174.49L1177.8 377.6H1137.56L1123.95 428ZM1171.28 428H1185.25L1198.78 377.6H1184.81L1171.28 428ZM1194.33 428H1208.23L1216 398.912L1229.61 428H1241.85L1255.39 377.6H1241.56L1234 405.608L1220.9 377.6H1207.94L1194.33 428ZM1246.12 428H1261.31L1267.36 418.928H1286.8L1288.02 428H1302.71L1294.86 377.24H1281.18L1246.12 428ZM1274.41 408.056L1283.85 393.656L1285.72 408.056H1274.41ZM1306.41 428H1344.5L1347.81 415.76H1323.76L1333.99 377.6H1320.02L1306.41 428ZM1350.92 428H1364.96L1369.78 410H1393.54L1396.64 398.408H1372.88L1375.18 389.84H1401.46L1404.77 377.6H1364.53L1350.92 428ZM1398.25 428H1412.21L1425.75 377.6H1411.78L1398.25 428ZM1421.3 428H1435.2L1442.97 398.912L1456.58 428H1468.82L1482.36 377.6H1468.53L1460.97 405.608L1447.87 377.6H1434.91L1421.3 428ZM1473.09 428H1488.28L1494.33 418.928H1513.77L1514.99 428H1529.68L1521.83 377.24H1508.15L1473.09 428ZM1501.38 408.056L1510.81 393.656L1512.69 408.056H1501.38ZM1533.38 428H1571.47L1574.78 415.76H1550.73L1560.95 377.6H1546.99L1533.38 428Z" fill="#FF0000"/>
<path opacity="0.2" d="M-238.864 504H-224.824L-220 486H-196.24L-193.144 474.408H-216.904L-214.6 465.84H-188.32L-185.008 453.6H-225.256L-238.864 504ZM-191.535 504H-177.567L-164.031 453.6H-177.999L-191.535 504ZM-168.481 504H-154.585L-146.809 474.912L-133.201 504H-120.961L-107.425 453.6H-121.249L-128.809 481.608L-141.913 453.6H-154.873L-168.481 504ZM-116.695 504H-101.503L-95.4552 494.928H-76.0152L-74.7912 504H-60.1032L-67.9512 453.24H-81.6312L-116.695 504ZM-88.3992 484.056L-78.9672 469.656L-77.0952 484.056H-88.3992ZM-56.4031 504H-18.3151L-15.0031 491.76H-39.0511L-28.8271 453.6H-42.7951L-56.4031 504ZM-11.8953 504H2.14475L6.96875 486H30.7288L33.8248 474.408H10.0648L12.3688 465.84H38.6488L41.9608 453.6H1.71275L-11.8953 504ZM35.4335 504H49.4015L62.9375 453.6H48.9695L35.4335 504ZM58.4876 504H72.3836L80.1596 474.912L93.7676 504H106.008L119.544 453.6H105.72L98.1596 481.608L85.0556 453.6H72.0956L58.4876 504ZM110.274 504H125.466L131.514 494.928H150.954L152.178 504H166.866L159.018 453.24H145.338L110.274 504ZM138.57 484.056L148.002 469.656L149.874 484.056H138.57ZM170.566 504H208.654L211.966 491.76H187.918L198.142 453.6H184.174L170.566 504ZM215.073 504H229.114L233.938 486H257.698L260.794 474.408H237.034L239.338 465.84H265.618L268.93 453.6H228.682L215.073 504ZM262.402 504H276.37L289.906 453.6H275.938L262.402 504ZM285.456 504H299.352L307.128 474.912L320.736 504H332.976L346.512 453.6H332.688L325.128 481.608L312.024 453.6H299.064L285.456 504ZM337.242 504H352.434L358.482 494.928H377.922L379.146 504H393.834L385.986 453.24H372.306L337.242 504ZM365.538 484.056L374.97 469.656L376.842 484.056H365.538ZM397.534 504H435.622L438.934 491.76H414.886L425.11 453.6H411.142L397.534 504ZM442.042 504H456.082L460.906 486H484.666L487.762 474.408H464.002L466.306 465.84H492.586L495.898 453.6H455.65L442.042 504ZM489.371 504H503.339L516.875 453.6H502.907L489.371 504ZM512.425 504H526.321L534.097 474.912L547.705 504H559.945L573.481 453.6H559.657L552.097 481.608L538.993 453.6H526.033L512.425 504ZM564.211 504H579.403L585.451 494.928H604.891L606.115 504H620.803L612.955 453.24H599.275L564.211 504ZM592.507 484.056L601.939 469.656L603.811 484.056H592.507ZM624.503 504H662.591L665.903 491.76H641.855L652.079 453.6H638.111L624.503 504ZM669.011 504H683.051L687.875 486H711.635L714.731 474.408H690.971L693.275 465.84H719.555L722.867 453.6H682.619L669.011 504ZM716.34 504H730.308L743.844 453.6H729.876L716.34 504ZM739.394 504H753.29L761.066 474.912L774.674 504H786.914L800.45 453.6H786.626L779.066 481.608L765.962 453.6H753.002L739.394 504ZM791.18 504H806.372L812.42 494.928H831.86L833.084 504H847.772L839.924 453.24H826.244L791.18 504ZM819.476 484.056L828.908 469.656L830.78 484.056H819.476ZM851.472 504H889.56L892.872 491.76H868.824L879.048 453.6H865.08L851.472 504ZM895.98 504H910.02L914.844 486H938.604L941.7 474.408H917.94L920.244 465.84H946.524L949.836 453.6H909.588L895.98 504ZM943.308 504H957.277L970.813 453.6H956.845L943.308 504ZM966.363 504H980.259L988.035 474.912L1001.64 504H1013.88L1027.42 453.6H1013.59L1006.03 481.608L992.931 453.6H979.971L966.363 504ZM1018.15 504H1033.34L1039.39 494.928H1058.83L1060.05 504H1074.74L1066.89 453.24H1053.21L1018.15 504ZM1046.44 484.056L1055.88 469.656L1057.75 484.056H1046.44ZM1078.44 504H1116.53L1119.84 491.76H1095.79L1106.02 453.6H1092.05L1078.44 504ZM1122.95 504H1136.99L1141.81 486H1165.57L1168.67 474.408H1144.91L1147.21 465.84H1173.49L1176.8 453.6H1136.56L1122.95 504ZM1170.28 504H1184.25L1197.78 453.6H1183.81L1170.28 504ZM1193.33 504H1207.23L1215 474.912L1228.61 504H1240.85L1254.39 453.6H1240.56L1233 481.608L1219.9 453.6H1206.94L1193.33 504ZM1245.12 504H1260.31L1266.36 494.928H1285.8L1287.02 504H1301.71L1293.86 453.24H1280.18L1245.12 504ZM1273.41 484.056L1282.85 469.656L1284.72 484.056H1273.41ZM1305.41 504H1343.5L1346.81 491.76H1322.76L1332.99 453.6H1319.02L1305.41 504ZM1349.92 504H1363.96L1368.78 486H1392.54L1395.64 474.408H1371.88L1374.18 465.84H1400.46L1403.77 453.6H1363.53L1349.92 504ZM1397.25 504H1411.21L1424.75 453.6H1410.78L1397.25 504ZM1420.3 504H1434.2L1441.97 474.912L1455.58 504H1467.82L1481.36 453.6H1467.53L1459.97 481.608L1446.87 453.6H1433.91L1420.3 504ZM1472.09 504H1487.28L1493.33 494.928H1512.77L1513.99 504H1528.68L1520.83 453.24H1507.15L1472.09 504ZM1500.38 484.056L1509.81 469.656L1511.69 484.056H1500.38ZM1532.38 504H1570.47L1573.78 491.76H1549.73L1559.95 453.6H1545.99L1532.38 504Z" fill="#FF0000"/>
<path opacity="0.2" d="M-154.864 580H-140.824L-136 562H-112.24L-109.144 550.408H-132.904L-130.6 541.84H-104.32L-101.008 529.6H-141.256L-154.864 580ZM-107.535 580H-93.5672L-80.0312 529.6H-93.9992L-107.535 580ZM-84.4812 580H-70.5852L-62.8092 550.912L-49.2012 580H-36.9612L-23.4252 529.6H-37.2492L-44.8092 557.608L-57.9132 529.6H-70.8732L-84.4812 580ZM-32.6952 580H-17.5032L-11.4552 570.928H7.98481L9.20881 580H23.8968L16.0488 529.24H2.36881L-32.6952 580ZM-4.39919 560.056L5.03281 545.656L6.90481 560.056H-4.39919ZM27.5969 580H65.6849L68.9969 567.76H44.9489L55.1729 529.6H41.2049L27.5969 580ZM72.1047 580H86.1448L90.9688 562H114.729L117.825 550.408H94.0648L96.3688 541.84H122.649L125.961 529.6H85.7128L72.1047 580ZM119.433 580H133.402L146.938 529.6H132.97L119.433 580ZM142.488 580H156.384L164.16 550.912L177.768 580H190.008L203.544 529.6H189.72L182.16 557.608L169.056 529.6H156.096L142.488 580ZM194.274 580H209.466L215.514 570.928H234.954L236.178 580H250.866L243.018 529.24H229.338L194.274 580ZM222.57 560.056L232.002 545.656L233.874 560.056H222.57ZM254.566 580H292.654L295.966 567.76H271.918L282.142 529.6H268.174L254.566 580ZM299.073 580H313.114L317.938 562H341.698L344.794 550.408H321.034L323.338 541.84H349.618L352.93 529.6H312.682L299.073 580ZM346.402 580H360.37L373.906 529.6H359.938L346.402 580ZM369.456 580H383.352L391.128 550.912L404.736 580H416.976L430.512 529.6H416.688L409.128 557.608L396.024 529.6H383.064L369.456 580ZM421.242 580H436.434L442.482 570.928H461.922L463.146 580H477.834L469.986 529.24H456.306L421.242 580ZM449.538 560.056L458.97 545.656L460.842 560.056H449.538ZM481.534 580H519.622L522.934 567.76H498.886L509.11 529.6H495.142L481.534 580ZM526.042 580H540.082L544.906 562H568.666L571.762 550.408H548.002L550.306 541.84H576.586L579.898 529.6H539.65L526.042 580ZM573.371 580H587.339L600.875 529.6H586.907L573.371 580ZM596.425 580H610.321L618.097 550.912L631.705 580H643.945L657.481 529.6H643.657L636.097 557.608L622.993 529.6H610.033L596.425 580ZM648.211 580H663.403L669.451 570.928H688.891L690.115 580H704.803L696.955 529.24H683.275L648.211 580ZM676.507 560.056L685.939 545.656L687.811 560.056H676.507ZM708.503 580H746.591L749.903 567.76H725.855L736.079 529.6H722.111L708.503 580ZM753.011 580H767.051L771.875 562H795.635L798.731 550.408H774.971L777.275 541.84H803.555L806.867 529.6H766.619L753.011 580ZM800.34 580H814.308L827.844 529.6H813.876L800.34 580ZM823.394 580H837.29L845.066 550.912L858.674 580H870.914L884.45 529.6H870.626L863.066 557.608L849.962 529.6H837.002L823.394 580ZM875.18 580H890.372L896.42 570.928H915.86L917.084 580H931.772L923.924 529.24H910.244L875.18 580ZM903.476 560.056L912.908 545.656L914.78 560.056H903.476ZM935.472 580H973.56L976.872 567.76H952.824L963.048 529.6H949.08L935.472 580ZM979.98 580H994.02L998.844 562H1022.6L1025.7 550.408H1001.94L1004.24 541.84H1030.52L1033.84 529.6H993.588L979.98 580ZM1027.31 580H1041.28L1054.81 529.6H1040.84L1027.31 580ZM1050.36 580H1064.26L1072.03 550.912L1085.64 580H1097.88L1111.42 529.6H1097.59L1090.03 557.608L1076.93 529.6H1063.97L1050.36 580ZM1102.15 580H1117.34L1123.39 570.928H1142.83L1144.05 580H1158.74L1150.89 529.24H1137.21L1102.15 580ZM1130.44 560.056L1139.88 545.656L1141.75 560.056H1130.44ZM1162.44 580H1200.53L1203.84 567.76H1179.79L1190.02 529.6H1176.05L1162.44 580ZM1206.95 580H1220.99L1225.81 562H1249.57L1252.67 550.408H1228.91L1231.21 541.84H1257.49L1260.8 529.6H1220.56L1206.95 580ZM1254.28 580H1268.25L1281.78 529.6H1267.81L1254.28 580ZM1277.33 580H1291.23L1299 550.912L1312.61 580H1324.85L1338.39 529.6H1324.56L1317 557.608L1303.9 529.6H1290.94L1277.33 580ZM1329.12 580H1344.31L1350.36 570.928H1369.8L1371.02 580H1385.71L1377.86 529.24H1364.18L1329.12 580ZM1357.41 560.056L1366.85 545.656L1368.72 560.056H1357.41ZM1389.41 580H1427.5L1430.81 567.76H1406.76L1416.99 529.6H1403.02L1389.41 580ZM1433.92 580H1447.96L1452.78 562H1476.54L1479.64 550.408H1455.88L1458.18 541.84H1484.46L1487.77 529.6H1447.53L1433.92 580ZM1481.25 580H1495.21L1508.75 529.6H1494.78L1481.25 580ZM1504.3 580H1518.2L1525.97 550.912L1539.58 580H1551.82L1565.36 529.6H1551.53L1543.97 557.608L1530.87 529.6H1517.91L1504.3 580ZM1556.09 580H1571.28L1577.33 570.928H1596.77L1597.99 580H1612.68L1604.83 529.24H1591.15L1556.09 580ZM1584.38 560.056L1593.81 545.656L1595.69 560.056H1584.38ZM1616.38 580H1654.47L1657.78 567.76H1633.73L1643.95 529.6H1629.99L1616.38 580Z" fill="#FF0000"/>
<path opacity="0.2" d="M-321.864 656H-307.824L-303 638H-279.24L-276.144 626.408H-299.904L-297.6 617.84H-271.32L-268.008 605.6H-308.256L-321.864 656ZM-274.535 656H-260.567L-247.031 605.6H-260.999L-274.535 656ZM-251.481 656H-237.585L-229.809 626.912L-216.201 656H-203.961L-190.425 605.6H-204.249L-211.809 633.608L-224.913 605.6H-237.873L-251.481 656ZM-199.695 656H-184.503L-178.455 646.928H-159.015L-157.791 656H-143.103L-150.951 605.24H-164.631L-199.695 656ZM-171.399 636.056L-161.967 621.656L-160.095 636.056H-171.399ZM-139.403 656H-101.315L-98.0031 643.76H-122.051L-111.827 605.6H-125.795L-139.403 656ZM-94.8953 656H-80.8552L-76.0312 638H-52.2712L-49.1752 626.408H-72.9352L-70.6312 617.84H-44.3512L-41.0392 605.6H-81.2872L-94.8953 656ZM-47.5665 656H-33.5985L-20.0625 605.6H-34.0305L-47.5665 656ZM-24.5124 656H-10.6164L-2.84044 626.912L10.7676 656H23.0076L36.5436 605.6H22.7196L15.1596 633.608L2.05556 605.6H-10.9044L-24.5124 656ZM27.2736 656H42.4656L48.5136 646.928H67.9536L69.1776 656H83.8656L76.0176 605.24H62.3376L27.2736 656ZM55.5696 636.056L65.0016 621.656L66.8736 636.056H55.5696ZM87.5657 656H125.654L128.966 643.76H104.918L115.142 605.6H101.174L87.5657 656ZM132.073 656H146.114L150.938 638H174.698L177.794 626.408H154.034L156.338 617.84H182.618L185.93 605.6H145.682L132.073 656ZM179.402 656H193.37L206.906 605.6H192.938L179.402 656ZM202.456 656H216.352L224.128 626.912L237.736 656H249.976L263.512 605.6H249.688L242.128 633.608L229.024 605.6H216.064L202.456 656ZM254.242 656H269.434L275.482 646.928H294.922L296.146 656H310.834L302.986 605.24H289.306L254.242 656ZM282.538 636.056L291.97 621.656L293.842 636.056H282.538ZM314.534 656H352.622L355.934 643.76H331.886L342.11 605.6H328.142L314.534 656ZM359.042 656H373.082L377.906 638H401.666L404.762 626.408H381.002L383.306 617.84H409.586L412.898 605.6H372.65L359.042 656ZM406.371 656H420.339L433.875 605.6H419.907L406.371 656ZM429.425 656H443.321L451.097 626.912L464.705 656H476.945L490.481 605.6H476.657L469.097 633.608L455.993 605.6H443.033L429.425 656ZM481.211 656H496.403L502.451 646.928H521.891L523.115 656H537.803L529.955 605.24H516.275L481.211 656ZM509.507 636.056L518.939 621.656L520.811 636.056H509.507ZM541.503 656H579.591L582.903 643.76H558.855L569.079 605.6H555.111L541.503 656ZM586.011 656H600.051L604.875 638H628.635L631.731 626.408H607.971L610.275 617.84H636.555L639.867 605.6H599.619L586.011 656ZM633.34 656H647.308L660.844 605.6H646.876L633.34 656ZM656.394 656H670.29L678.066 626.912L691.674 656H703.914L717.45 605.6H703.626L696.066 633.608L682.962 605.6H670.002L656.394 656ZM708.18 656H723.372L729.42 646.928H748.86L750.084 656H764.772L756.924 605.24H743.244L708.18 656ZM736.476 636.056L745.908 621.656L747.78 636.056H736.476ZM768.472 656H806.56L809.872 643.76H785.824L796.048 605.6H782.08L768.472 656ZM812.98 656H827.02L831.844 638H855.604L858.7 626.408H834.94L837.244 617.84H863.524L866.836 605.6H826.588L812.98 656ZM860.308 656H874.277L887.813 605.6H873.845L860.308 656ZM883.363 656H897.259L905.035 626.912L918.643 656H930.883L944.419 605.6H930.595L923.035 633.608L909.931 605.6H896.971L883.363 656ZM935.149 656H950.341L956.389 646.928H975.829L977.053 656H991.741L983.893 605.24H970.213L935.149 656ZM963.445 636.056L972.877 621.656L974.749 636.056H963.445ZM995.441 656H1033.53L1036.84 643.76H1012.79L1023.02 605.6H1009.05L995.441 656ZM1039.95 656H1053.99L1058.81 638H1082.57L1085.67 626.408H1061.91L1064.21 617.84H1090.49L1093.8 605.6H1053.56L1039.95 656ZM1087.28 656H1101.25L1114.78 605.6H1100.81L1087.28 656ZM1110.33 656H1124.23L1132 626.912L1145.61 656H1157.85L1171.39 605.6H1157.56L1150 633.608L1136.9 605.6H1123.94L1110.33 656ZM1162.12 656H1177.31L1183.36 646.928H1202.8L1204.02 656H1218.71L1210.86 605.24H1197.18L1162.12 656ZM1190.41 636.056L1199.85 621.656L1201.72 636.056H1190.41ZM1222.41 656H1260.5L1263.81 643.76H1239.76L1249.99 605.6H1236.02L1222.41 656ZM1266.92 656H1280.96L1285.78 638H1309.54L1312.64 626.408H1288.88L1291.18 617.84H1317.46L1320.77 605.6H1280.53L1266.92 656ZM1314.25 656H1328.21L1341.75 605.6H1327.78L1314.25 656ZM1337.3 656H1351.2L1358.97 626.912L1372.58 656H1384.82L1398.36 605.6H1384.53L1376.97 633.608L1363.87 605.6H1350.91L1337.3 656ZM1389.09 656H1404.28L1410.33 646.928H1429.77L1430.99 656H1445.68L1437.83 605.24H1424.15L1389.09 656ZM1417.38 636.056L1426.81 621.656L1428.69 636.056H1417.38ZM1449.38 656H1487.47L1490.78 643.76H1466.73L1476.95 605.6H1462.99L1449.38 656Z" fill="#FF0000"/>
<path opacity="0.2" d="M-321.864 732H-307.824L-303 714H-279.24L-276.144 702.408H-299.904L-297.6 693.84H-271.32L-268.008 681.6H-308.256L-321.864 732ZM-274.535 732H-260.567L-247.031 681.6H-260.999L-274.535 732ZM-251.481 732H-237.585L-229.809 702.912L-216.201 732H-203.961L-190.425 681.6H-204.249L-211.809 709.608L-224.913 681.6H-237.873L-251.481 732ZM-199.695 732H-184.503L-178.455 722.928H-159.015L-157.791 732H-143.103L-150.951 681.24H-164.631L-199.695 732ZM-171.399 712.056L-161.967 697.656L-160.095 712.056H-171.399ZM-139.403 732H-101.315L-98.0031 719.76H-122.051L-111.827 681.6H-125.795L-139.403 732ZM-94.8953 732H-80.8552L-76.0312 714H-52.2712L-49.1752 702.408H-72.9352L-70.6312 693.84H-44.3512L-41.0392 681.6H-81.2872L-94.8953 732ZM-47.5665 732H-33.5985L-20.0625 681.6H-34.0305L-47.5665 732ZM-24.5124 732H-10.6164L-2.84044 702.912L10.7676 732H23.0076L36.5436 681.6H22.7196L15.1596 709.608L2.05556 681.6H-10.9044L-24.5124 732ZM27.2736 732H42.4656L48.5136 722.928H67.9536L69.1776 732H83.8656L76.0176 681.24H62.3376L27.2736 732ZM55.5696 712.056L65.0016 697.656L66.8736 712.056H55.5696ZM87.5657 732H125.654L128.966 719.76H104.918L115.142 681.6H101.174L87.5657 732ZM132.073 732H146.114L150.938 714H174.698L177.794 702.408H154.034L156.338 693.84H182.618L185.93 681.6H145.682L132.073 732ZM179.402 732H193.37L206.906 681.6H192.938L179.402 732ZM202.456 732H216.352L224.128 702.912L237.736 732H249.976L263.512 681.6H249.688L242.128 709.608L229.024 681.6H216.064L202.456 732ZM254.242 732H269.434L275.482 722.928H294.922L296.146 732H310.834L302.986 681.24H289.306L254.242 732ZM282.538 712.056L291.97 697.656L293.842 712.056H282.538ZM314.534 732H352.622L355.934 719.76H331.886L342.11 681.6H328.142L314.534 732ZM359.042 732H373.082L377.906 714H401.666L404.762 702.408H381.002L383.306 693.84H409.586L412.898 681.6H372.65L359.042 732ZM406.371 732H420.339L433.875 681.6H419.907L406.371 732ZM429.425 732H443.321L451.097 702.912L464.705 732H476.945L490.481 681.6H476.657L469.097 709.608L455.993 681.6H443.033L429.425 732ZM481.211 732H496.403L502.451 722.928H521.891L523.115 732H537.803L529.955 681.24H516.275L481.211 732ZM509.507 712.056L518.939 697.656L520.811 712.056H509.507ZM541.503 732H579.591L582.903 719.76H558.855L569.079 681.6H555.111L541.503 732ZM586.011 732H600.051L604.875 714H628.635L631.731 702.408H607.971L610.275 693.84H636.555L639.867 681.6H599.619L586.011 732ZM633.34 732H647.308L660.844 681.6H646.876L633.34 732ZM656.394 732H670.29L678.066 702.912L691.674 732H703.914L717.45 681.6H703.626L696.066 709.608L682.962 681.6H670.002L656.394 732ZM708.18 732H723.372L729.42 722.928H748.86L750.084 732H764.772L756.924 681.24H743.244L708.18 732ZM736.476 712.056L745.908 697.656L747.78 712.056H736.476ZM768.472 732H806.56L809.872 719.76H785.824L796.048 681.6H782.08L768.472 732ZM812.98 732H827.02L831.844 714H855.604L858.7 702.408H834.94L837.244 693.84H863.524L866.836 681.6H826.588L812.98 732ZM860.308 732H874.277L887.813 681.6H873.845L860.308 732ZM883.363 732H897.259L905.035 702.912L918.643 732H930.883L944.419 681.6H930.595L923.035 709.608L909.931 681.6H896.971L883.363 732ZM935.149 732H950.341L956.389 722.928H975.829L977.053 732H991.741L983.893 681.24H970.213L935.149 732ZM963.445 712.056L972.877 697.656L974.749 712.056H963.445ZM995.441 732H1033.53L1036.84 719.76H1012.79L1023.02 681.6H1009.05L995.441 732ZM1039.95 732H1053.99L1058.81 714H1082.57L1085.67 702.408H1061.91L1064.21 693.84H1090.49L1093.8 681.6H1053.56L1039.95 732ZM1087.28 732H1101.25L1114.78 681.6H1100.81L1087.28 732ZM1110.33 732H1124.23L1132 702.912L1145.61 732H1157.85L1171.39 681.6H1157.56L1150 709.608L1136.9 681.6H1123.94L1110.33 732ZM1162.12 732H1177.31L1183.36 722.928H1202.8L1204.02 732H1218.71L1210.86 681.24H1197.18L1162.12 732ZM1190.41 712.056L1199.85 697.656L1201.72 712.056H1190.41ZM1222.41 732H1260.5L1263.81 719.76H1239.76L1249.99 681.6H1236.02L1222.41 732ZM1266.92 732H1280.96L1285.78 714H1309.54L1312.64 702.408H1288.88L1291.18 693.84H1317.46L1320.77 681.6H1280.53L1266.92 732ZM1314.25 732H1328.21L1341.75 681.6H1327.78L1314.25 732ZM1337.3 732H1351.2L1358.97 702.912L1372.58 732H1384.82L1398.36 681.6H1384.53L1376.97 709.608L1363.87 681.6H1350.91L1337.3 732ZM1389.09 732H1404.28L1410.33 722.928H1429.77L1430.99 732H1445.68L1437.83 681.24H1424.15L1389.09 732ZM1417.38 712.056L1426.81 697.656L1428.69 712.056H1417.38ZM1449.38 732H1487.47L1490.78 719.76H1466.73L1476.95 681.6H1462.99L1449.38 732Z" fill="#FF0000"/>
<path opacity="0.2" d="M-237.864 808H-223.824L-219 790H-195.24L-192.144 778.408H-215.904L-213.6 769.84H-187.32L-184.008 757.6H-224.256L-237.864 808ZM-190.535 808H-176.567L-163.031 757.6H-176.999L-190.535 808ZM-167.481 808H-153.585L-145.809 778.912L-132.201 808H-119.961L-106.425 757.6H-120.249L-127.809 785.608L-140.913 757.6H-153.873L-167.481 808ZM-115.695 808H-100.503L-94.4552 798.928H-75.0152L-73.7912 808H-59.1032L-66.9512 757.24H-80.6312L-115.695 808ZM-87.3992 788.056L-77.9672 773.656L-76.0952 788.056H-87.3992ZM-55.4031 808H-17.3151L-14.0031 795.76H-38.0511L-27.8271 757.6H-41.7951L-55.4031 808ZM-10.8953 808H3.14475L7.96875 790H31.7288L34.8248 778.408H11.0648L13.3688 769.84H39.6488L42.9608 757.6H2.71275L-10.8953 808ZM36.4335 808H50.4015L63.9375 757.6H49.9695L36.4335 808ZM59.4876 808H73.3836L81.1596 778.912L94.7676 808H107.008L120.544 757.6H106.72L99.1596 785.608L86.0556 757.6H73.0956L59.4876 808ZM111.274 808H126.466L132.514 798.928H151.954L153.178 808H167.866L160.018 757.24H146.338L111.274 808ZM139.57 788.056L149.002 773.656L150.874 788.056H139.57ZM171.566 808H209.654L212.966 795.76H188.918L199.142 757.6H185.174L171.566 808ZM216.073 808H230.114L234.938 790H258.698L261.794 778.408H238.034L240.338 769.84H266.618L269.93 757.6H229.682L216.073 808ZM263.402 808H277.37L290.906 757.6H276.938L263.402 808ZM286.456 808H300.352L308.128 778.912L321.736 808H333.976L347.512 757.6H333.688L326.128 785.608L313.024 757.6H300.064L286.456 808ZM338.242 808H353.434L359.482 798.928H378.922L380.146 808H394.834L386.986 757.24H373.306L338.242 808ZM366.538 788.056L375.97 773.656L377.842 788.056H366.538ZM398.534 808H436.622L439.934 795.76H415.886L426.11 757.6H412.142L398.534 808ZM443.042 808H457.082L461.906 790H485.666L488.762 778.408H465.002L467.306 769.84H493.586L496.898 757.6H456.65L443.042 808ZM490.371 808H504.339L517.875 757.6H503.907L490.371 808ZM513.425 808H527.321L535.097 778.912L548.705 808H560.945L574.481 757.6H560.657L553.097 785.608L539.993 757.6H527.033L513.425 808ZM565.211 808H580.403L586.451 798.928H605.891L607.115 808H621.803L613.955 757.24H600.275L565.211 808ZM593.507 788.056L602.939 773.656L604.811 788.056H593.507ZM625.503 808H663.591L666.903 795.76H642.855L653.079 757.6H639.111L625.503 808ZM670.011 808H684.051L688.875 790H712.635L715.731 778.408H691.971L694.275 769.84H720.555L723.867 757.6H683.619L670.011 808ZM717.34 808H731.308L744.844 757.6H730.876L717.34 808ZM740.394 808H754.29L762.066 778.912L775.674 808H787.914L801.45 757.6H787.626L780.066 785.608L766.962 757.6H754.002L740.394 808ZM792.18 808H807.372L813.42 798.928H832.86L834.084 808H848.772L840.924 757.24H827.244L792.18 808ZM820.476 788.056L829.908 773.656L831.78 788.056H820.476ZM852.472 808H890.56L893.872 795.76H869.824L880.048 757.6H866.08L852.472 808ZM896.98 808H911.02L915.844 790H939.604L942.7 778.408H918.94L921.244 769.84H947.524L950.836 757.6H910.588L896.98 808ZM944.308 808H958.277L971.813 757.6H957.845L944.308 808ZM967.363 808H981.259L989.035 778.912L1002.64 808H1014.88L1028.42 757.6H1014.59L1007.03 785.608L993.931 757.6H980.971L967.363 808ZM1019.15 808H1034.34L1040.39 798.928H1059.83L1061.05 808H1075.74L1067.89 757.24H1054.21L1019.15 808ZM1047.44 788.056L1056.88 773.656L1058.75 788.056H1047.44ZM1079.44 808H1117.53L1120.84 795.76H1096.79L1107.02 757.6H1093.05L1079.44 808ZM1123.95 808H1137.99L1142.81 790H1166.57L1169.67 778.408H1145.91L1148.21 769.84H1174.49L1177.8 757.6H1137.56L1123.95 808ZM1171.28 808H1185.25L1198.78 757.6H1184.81L1171.28 808ZM1194.33 808H1208.23L1216 778.912L1229.61 808H1241.85L1255.39 757.6H1241.56L1234 785.608L1220.9 757.6H1207.94L1194.33 808ZM1246.12 808H1261.31L1267.36 798.928H1286.8L1288.02 808H1302.71L1294.86 757.24H1281.18L1246.12 808ZM1274.41 788.056L1283.85 773.656L1285.72 788.056H1274.41ZM1306.41 808H1344.5L1347.81 795.76H1323.76L1333.99 757.6H1320.02L1306.41 808ZM1350.92 808H1364.96L1369.78 790H1393.54L1396.64 778.408H1372.88L1375.18 769.84H1401.46L1404.77 757.6H1364.53L1350.92 808ZM1398.25 808H1412.21L1425.75 757.6H1411.78L1398.25 808ZM1421.3 808H1435.2L1442.97 778.912L1456.58 808H1468.82L1482.36 757.6H1468.53L1460.97 785.608L1447.87 757.6H1434.91L1421.3 808ZM1473.09 808H1488.28L1494.33 798.928H1513.77L1514.99 808H1529.68L1521.83 757.24H1508.15L1473.09 808ZM1501.38 788.056L1510.81 773.656L1512.69 788.056H1501.38ZM1533.38 808H1571.47L1574.78 795.76H1550.73L1560.95 757.6H1546.99L1533.38 808Z" fill="#FF0000"/>
<path opacity="0.2" d="M-238.864 884H-224.824L-220 866H-196.24L-193.144 854.408H-216.904L-214.6 845.84H-188.32L-185.008 833.6H-225.256L-238.864 884ZM-191.535 884H-177.567L-164.031 833.6H-177.999L-191.535 884ZM-168.481 884H-154.585L-146.809 854.912L-133.201 884H-120.961L-107.425 833.6H-121.249L-128.809 861.608L-141.913 833.6H-154.873L-168.481 884ZM-116.695 884H-101.503L-95.4552 874.928H-76.0152L-74.7912 884H-60.1032L-67.9512 833.24H-81.6312L-116.695 884ZM-88.3992 864.056L-78.9672 849.656L-77.0952 864.056H-88.3992ZM-56.4031 884H-18.3151L-15.0031 871.76H-39.0511L-28.8271 833.6H-42.7951L-56.4031 884ZM-11.8953 884H2.14475L6.96875 866H30.7288L33.8248 854.408H10.0648L12.3688 845.84H38.6488L41.9608 833.6H1.71275L-11.8953 884ZM35.4335 884H49.4015L62.9375 833.6H48.9695L35.4335 884ZM58.4876 884H72.3836L80.1596 854.912L93.7676 884H106.008L119.544 833.6H105.72L98.1596 861.608L85.0556 833.6H72.0956L58.4876 884ZM110.274 884H125.466L131.514 874.928H150.954L152.178 884H166.866L159.018 833.24H145.338L110.274 884ZM138.57 864.056L148.002 849.656L149.874 864.056H138.57ZM170.566 884H208.654L211.966 871.76H187.918L198.142 833.6H184.174L170.566 884ZM215.073 884H229.114L233.938 866H257.698L260.794 854.408H237.034L239.338 845.84H265.618L268.93 833.6H228.682L215.073 884ZM262.402 884H276.37L289.906 833.6H275.938L262.402 884ZM285.456 884H299.352L307.128 854.912L320.736 884H332.976L346.512 833.6H332.688L325.128 861.608L312.024 833.6H299.064L285.456 884ZM337.242 884H352.434L358.482 874.928H377.922L379.146 884H393.834L385.986 833.24H372.306L337.242 884ZM365.538 864.056L374.97 849.656L376.842 864.056H365.538ZM397.534 884H435.622L438.934 871.76H414.886L425.11 833.6H411.142L397.534 884ZM442.042 884H456.082L460.906 866H484.666L487.762 854.408H464.002L466.306 845.84H492.586L495.898 833.6H455.65L442.042 884ZM489.371 884H503.339L516.875 833.6H502.907L489.371 884ZM512.425 884H526.321L534.097 854.912L547.705 884H559.945L573.481 833.6H559.657L552.097 861.608L538.993 833.6H526.033L512.425 884ZM564.211 884H579.403L585.451 874.928H604.891L606.115 884H620.803L612.955 833.24H599.275L564.211 884ZM592.507 864.056L601.939 849.656L603.811 864.056H592.507ZM624.503 884H662.591L665.903 871.76H641.855L652.079 833.6H638.111L624.503 884ZM669.011 884H683.051L687.875 866H711.635L714.731 854.408H690.971L693.275 845.84H719.555L722.867 833.6H682.619L669.011 884ZM716.34 884H730.308L743.844 833.6H729.876L716.34 884ZM739.394 884H753.29L761.066 854.912L774.674 884H786.914L800.45 833.6H786.626L779.066 861.608L765.962 833.6H753.002L739.394 884ZM791.18 884H806.372L812.42 874.928H831.86L833.084 884H847.772L839.924 833.24H826.244L791.18 884ZM819.476 864.056L828.908 849.656L830.78 864.056H819.476ZM851.472 884H889.56L892.872 871.76H868.824L879.048 833.6H865.08L851.472 884ZM895.98 884H910.02L914.844 866H938.604L941.7 854.408H917.94L920.244 845.84H946.524L949.836 833.6H909.588L895.98 884ZM943.308 884H957.277L970.813 833.6H956.845L943.308 884ZM966.363 884H980.259L988.035 854.912L1001.64 884H1013.88L1027.42 833.6H1013.59L1006.03 861.608L992.931 833.6H979.971L966.363 884ZM1018.15 884H1033.34L1039.39 874.928H1058.83L1060.05 884H1074.74L1066.89 833.24H1053.21L1018.15 884ZM1046.44 864.056L1055.88 849.656L1057.75 864.056H1046.44ZM1078.44 884H1116.53L1119.84 871.76H1095.79L1106.02 833.6H1092.05L1078.44 884ZM1122.95 884H1136.99L1141.81 866H1165.57L1168.67 854.408H1144.91L1147.21 845.84H1173.49L1176.8 833.6H1136.56L1122.95 884ZM1170.28 884H1184.25L1197.78 833.6H1183.81L1170.28 884ZM1193.33 884H1207.23L1215 854.912L1228.61 884H1240.85L1254.39 833.6H1240.56L1233 861.608L1219.9 833.6H1206.94L1193.33 884ZM1245.12 884H1260.31L1266.36 874.928H1285.8L1287.02 884H1301.71L1293.86 833.24H1280.18L1245.12 884ZM1273.41 864.056L1282.85 849.656L1284.72 864.056H1273.41ZM1305.41 884H1343.5L1346.81 871.76H1322.76L1332.99 833.6H1319.02L1305.41 884ZM1349.92 884H1363.96L1368.78 866H1392.54L1395.64 854.408H1371.88L1374.18 845.84H1400.46L1403.77 833.6H1363.53L1349.92 884ZM1397.25 884H1411.21L1424.75 833.6H1410.78L1397.25 884ZM1420.3 884H1434.2L1441.97 854.912L1455.58 884H1467.82L1481.36 833.6H1467.53L1459.97 861.608L1446.87 833.6H1433.91L1420.3 884ZM1472.09 884H1487.28L1493.33 874.928H1512.77L1513.99 884H1528.68L1520.83 833.24H1507.15L1472.09 884ZM1500.38 864.056L1509.81 849.656L1511.69 864.056H1500.38ZM1532.38 884H1570.47L1573.78 871.76H1549.73L1559.95 833.6H1545.99L1532.38 884Z" fill="#FF0000"/>
<path opacity="0.2" d="M-154.864 960H-140.824L-136 942H-112.24L-109.144 930.408H-132.904L-130.6 921.84H-104.32L-101.008 909.6H-141.256L-154.864 960ZM-107.535 960H-93.5672L-80.0312 909.6H-93.9992L-107.535 960ZM-84.4812 960H-70.5852L-62.8092 930.912L-49.2012 960H-36.9612L-23.4252 909.6H-37.2492L-44.8092 937.608L-57.9132 909.6H-70.8732L-84.4812 960ZM-32.6952 960H-17.5032L-11.4552 950.928H7.98481L9.20881 960H23.8968L16.0488 909.24H2.36881L-32.6952 960ZM-4.39919 940.056L5.03281 925.656L6.90481 940.056H-4.39919ZM27.5969 960H65.6849L68.9969 947.76H44.9489L55.1729 909.6H41.2049L27.5969 960ZM72.1047 960H86.1448L90.9688 942H114.729L117.825 930.408H94.0648L96.3688 921.84H122.649L125.961 909.6H85.7128L72.1047 960ZM119.433 960H133.402L146.938 909.6H132.97L119.433 960ZM142.488 960H156.384L164.16 930.912L177.768 960H190.008L203.544 909.6H189.72L182.16 937.608L169.056 909.6H156.096L142.488 960ZM194.274 960H209.466L215.514 950.928H234.954L236.178 960H250.866L243.018 909.24H229.338L194.274 960ZM222.57 940.056L232.002 925.656L233.874 940.056H222.57ZM254.566 960H292.654L295.966 947.76H271.918L282.142 909.6H268.174L254.566 960ZM299.073 960H313.114L317.938 942H341.698L344.794 930.408H321.034L323.338 921.84H349.618L352.93 909.6H312.682L299.073 960ZM346.402 960H360.37L373.906 909.6H359.938L346.402 960ZM369.456 960H383.352L391.128 930.912L404.736 960H416.976L430.512 909.6H416.688L409.128 937.608L396.024 909.6H383.064L369.456 960ZM421.242 960H436.434L442.482 950.928H461.922L463.146 960H477.834L469.986 909.24H456.306L421.242 960ZM449.538 940.056L458.97 925.656L460.842 940.056H449.538ZM481.534 960H519.622L522.934 947.76H498.886L509.11 909.6H495.142L481.534 960ZM526.042 960H540.082L544.906 942H568.666L571.762 930.408H548.002L550.306 921.84H576.586L579.898 909.6H539.65L526.042 960ZM573.371 960H587.339L600.875 909.6H586.907L573.371 960ZM596.425 960H610.321L618.097 930.912L631.705 960H643.945L657.481 909.6H643.657L636.097 937.608L622.993 909.6H610.033L596.425 960ZM648.211 960H663.403L669.451 950.928H688.891L690.115 960H704.803L696.955 909.24H683.275L648.211 960ZM676.507 940.056L685.939 925.656L687.811 940.056H676.507ZM708.503 960H746.591L749.903 947.76H725.855L736.079 909.6H722.111L708.503 960ZM753.011 960H767.051L771.875 942H795.635L798.731 930.408H774.971L777.275 921.84H803.555L806.867 909.6H766.619L753.011 960ZM800.34 960H814.308L827.844 909.6H813.876L800.34 960ZM823.394 960H837.29L845.066 930.912L858.674 960H870.914L884.45 909.6H870.626L863.066 937.608L849.962 909.6H837.002L823.394 960ZM875.18 960H890.372L896.42 950.928H915.86L917.084 960H931.772L923.924 909.24H910.244L875.18 960ZM903.476 940.056L912.908 925.656L914.78 940.056H903.476ZM935.472 960H973.56L976.872 947.76H952.824L963.048 909.6H949.08L935.472 960ZM979.98 960H994.02L998.844 942H1022.6L1025.7 930.408H1001.94L1004.24 921.84H1030.52L1033.84 909.6H993.588L979.98 960ZM1027.31 960H1041.28L1054.81 909.6H1040.84L1027.31 960ZM1050.36 960H1064.26L1072.03 930.912L1085.64 960H1097.88L1111.42 909.6H1097.59L1090.03 937.608L1076.93 909.6H1063.97L1050.36 960ZM1102.15 960H1117.34L1123.39 950.928H1142.83L1144.05 960H1158.74L1150.89 909.24H1137.21L1102.15 960ZM1130.44 940.056L1139.88 925.656L1141.75 940.056H1130.44ZM1162.44 960H1200.53L1203.84 947.76H1179.79L1190.02 909.6H1176.05L1162.44 960ZM1206.95 960H1220.99L1225.81 942H1249.57L1252.67 930.408H1228.91L1231.21 921.84H1257.49L1260.8 909.6H1220.56L1206.95 960ZM1254.28 960H1268.25L1281.78 909.6H1267.81L1254.28 960ZM1277.33 960H1291.23L1299 930.912L1312.61 960H1324.85L1338.39 909.6H1324.56L1317 937.608L1303.9 909.6H1290.94L1277.33 960ZM1329.12 960H1344.31L1350.36 950.928H1369.8L1371.02 960H1385.71L1377.86 909.24H1364.18L1329.12 960ZM1357.41 940.056L1366.85 925.656L1368.72 940.056H1357.41ZM1389.41 960H1427.5L1430.81 947.76H1406.76L1416.99 909.6H1403.02L1389.41 960ZM1433.92 960H1447.96L1452.78 942H1476.54L1479.64 930.408H1455.88L1458.18 921.84H1484.46L1487.77 909.6H1447.53L1433.92 960ZM1481.25 960H1495.21L1508.75 909.6H1494.78L1481.25 960ZM1504.3 960H1518.2L1525.97 930.912L1539.58 960H1551.82L1565.36 909.6H1551.53L1543.97 937.608L1530.87 909.6H1517.91L1504.3 960ZM1556.09 960H1571.28L1577.33 950.928H1596.77L1597.99 960H1612.68L1604.83 909.24H1591.15L1556.09 960ZM1584.38 940.056L1593.81 925.656L1595.69 940.056H1584.38ZM1616.38 960H1654.47L1657.78 947.76H1633.73L1643.95 909.6H1629.99L1616.38 960Z" fill="#FF0000"/>
<path opacity="0.2" d="M-321.864 1036H-307.824L-303 1018H-279.24L-276.144 1006.41H-299.904L-297.6 997.84H-271.32L-268.008 985.6H-308.256L-321.864 1036ZM-274.535 1036H-260.567L-247.031 985.6H-260.999L-274.535 1036ZM-251.481 1036H-237.585L-229.809 1006.91L-216.201 1036H-203.961L-190.425 985.6H-204.249L-211.809 1013.61L-224.913 985.6H-237.873L-251.481 1036ZM-199.695 1036H-184.503L-178.455 1026.93H-159.015L-157.791 1036H-143.103L-150.951 985.24H-164.631L-199.695 1036ZM-171.399 1016.06L-161.967 1001.66L-160.095 1016.06H-171.399ZM-139.403 1036H-101.315L-98.0031 1023.76H-122.051L-111.827 985.6H-125.795L-139.403 1036ZM-94.8953 1036H-80.8552L-76.0312 1018H-52.2712L-49.1752 1006.41H-72.9352L-70.6312 997.84H-44.3512L-41.0392 985.6H-81.2872L-94.8953 1036ZM-47.5665 1036H-33.5985L-20.0625 985.6H-34.0305L-47.5665 1036ZM-24.5124 1036H-10.6164L-2.84044 1006.91L10.7676 1036H23.0076L36.5436 985.6H22.7196L15.1596 1013.61L2.05556 985.6H-10.9044L-24.5124 1036ZM27.2736 1036H42.4656L48.5136 1026.93H67.9536L69.1776 1036H83.8656L76.0176 985.24H62.3376L27.2736 1036ZM55.5696 1016.06L65.0016 1001.66L66.8736 1016.06H55.5696ZM87.5657 1036H125.654L128.966 1023.76H104.918L115.142 985.6H101.174L87.5657 1036ZM132.073 1036H146.114L150.938 1018H174.698L177.794 1006.41H154.034L156.338 997.84H182.618L185.93 985.6H145.682L132.073 1036ZM179.402 1036H193.37L206.906 985.6H192.938L179.402 1036ZM202.456 1036H216.352L224.128 1006.91L237.736 1036H249.976L263.512 985.6H249.688L242.128 1013.61L229.024 985.6H216.064L202.456 1036ZM254.242 1036H269.434L275.482 1026.93H294.922L296.146 1036H310.834L302.986 985.24H289.306L254.242 1036ZM282.538 1016.06L291.97 1001.66L293.842 1016.06H282.538ZM314.534 1036H352.622L355.934 1023.76H331.886L342.11 985.6H328.142L314.534 1036ZM359.042 1036H373.082L377.906 1018H401.666L404.762 1006.41H381.002L383.306 997.84H409.586L412.898 985.6H372.65L359.042 1036ZM406.371 1036H420.339L433.875 985.6H419.907L406.371 1036ZM429.425 1036H443.321L451.097 1006.91L464.705 1036H476.945L490.481 985.6H476.657L469.097 1013.61L455.993 985.6H443.033L429.425 1036ZM481.211 1036H496.403L502.451 1026.93H521.891L523.115 1036H537.803L529.955 985.24H516.275L481.211 1036ZM509.507 1016.06L518.939 1001.66L520.811 1016.06H509.507ZM541.503 1036H579.591L582.903 1023.76H558.855L569.079 985.6H555.111L541.503 1036ZM586.011 1036H600.051L604.875 1018H628.635L631.731 1006.41H607.971L610.275 997.84H636.555L639.867 985.6H599.619L586.011 1036ZM633.34 1036H647.308L660.844 985.6H646.876L633.34 1036ZM656.394 1036H670.29L678.066 1006.91L691.674 1036H703.914L717.45 985.6H703.626L696.066 1013.61L682.962 985.6H670.002L656.394 1036ZM708.18 1036H723.372L729.42 1026.93H748.86L750.084 1036H764.772L756.924 985.24H743.244L708.18 1036ZM736.476 1016.06L745.908 1001.66L747.78 1016.06H736.476ZM768.472 1036H806.56L809.872 1023.76H785.824L796.048 985.6H782.08L768.472 1036ZM812.98 1036H827.02L831.844 1018H855.604L858.7 1006.41H834.94L837.244 997.84H863.524L866.836 985.6H826.588L812.98 1036ZM860.308 1036H874.277L887.813 985.6H873.845L860.308 1036ZM883.363 1036H897.259L905.035 1006.91L918.643 1036H930.883L944.419 985.6H930.595L923.035 1013.61L909.931 985.6H896.971L883.363 1036ZM935.149 1036H950.341L956.389 1026.93H975.829L977.053 1036H991.741L983.893 985.24H970.213L935.149 1036ZM963.445 1016.06L972.877 1001.66L974.749 1016.06H963.445ZM995.441 1036H1033.53L1036.84 1023.76H1012.79L1023.02 985.6H1009.05L995.441 1036ZM1039.95 1036H1053.99L1058.81 1018H1082.57L1085.67 1006.41H1061.91L1064.21 997.84H1090.49L1093.8 985.6H1053.56L1039.95 1036ZM1087.28 1036H1101.25L1114.78 985.6H1100.81L1087.28 1036ZM1110.33 1036H1124.23L1132 1006.91L1145.61 1036H1157.85L1171.39 985.6H1157.56L1150 1013.61L1136.9 985.6H1123.94L1110.33 1036ZM1162.12 1036H1177.31L1183.36 1026.93H1202.8L1204.02 1036H1218.71L1210.86 985.24H1197.18L1162.12 1036ZM1190.41 1016.06L1199.85 1001.66L1201.72 1016.06H1190.41ZM1222.41 1036H1260.5L1263.81 1023.76H1239.76L1249.99 985.6H1236.02L1222.41 1036ZM1266.92 1036H1280.96L1285.78 1018H1309.54L1312.64 1006.41H1288.88L1291.18 997.84H1317.46L1320.77 985.6H1280.53L1266.92 1036ZM1314.25 1036H1328.21L1341.75 985.6H1327.78L1314.25 1036ZM1337.3 1036H1351.2L1358.97 1006.91L1372.58 1036H1384.82L1398.36 985.6H1384.53L1376.97 1013.61L1363.87 985.6H1350.91L1337.3 1036ZM1389.09 1036H1404.28L1410.33 1026.93H1429.77L1430.99 1036H1445.68L1437.83 985.24H1424.15L1389.09 1036ZM1417.38 1016.06L1426.81 1001.66L1428.69 1016.06H1417.38ZM1449.38 1036H1487.47L1490.78 1023.76H1466.73L1476.95 985.6H1462.99L1449.38 1036Z" fill="#FF0000"/>
</svg>
