<svg width="198" height="10" viewBox="0 0 198 10" fill="none" xmlns="http://www.w3.org/2000/svg">
<path d="M4.63965 1H1.50965V8H4.63965C6.92965 8 8.44965 6.6 8.44965 4.5C8.44965 2.4 6.92965 1 4.63965 1ZM4.72965 6.1H3.60965V2.9H4.72965C5.63965 2.9 6.24965 3.54 6.24965 4.5C6.24965 5.46 5.63965 6.1 4.72965 6.1ZM9.39051 8H11.4905V6H12.3905L13.6505 8H15.9405L14.4105 5.68C15.3105 5.27 15.8505 4.5 15.8505 3.5C15.8505 2 14.6305 1 12.8105 1H9.39051V8ZM11.4905 4.32V2.83H12.8905C13.4105 2.83 13.7505 3.13 13.7505 3.57C13.7505 4.02 13.4105 4.32 12.8905 4.32H11.4905ZM16.7343 8H18.8343V1H16.7343V8ZM25.1241 4.3C25.8441 3.94 26.1141 3.38 26.1141 2.84C26.1141 1.91 25.3141 1 23.9241 1H20.0741V8H24.4041C25.8241 8 26.6141 7.01 26.6141 6.04C26.6141 5.31 26.1941 4.64 25.1241 4.38V4.3ZM22.1741 2.7H23.4241C23.7641 2.7 23.9341 2.95 23.9341 3.19C23.9341 3.44 23.7641 3.69 23.4241 3.69H22.1741V2.7ZM23.7741 6.3H22.1741V5.19H23.7741C24.1741 5.19 24.3741 5.46 24.3741 5.74C24.3741 6.02 24.1641 6.3 23.7741 6.3ZM32.5069 4.3C33.2269 3.94 33.4969 3.38 33.4969 2.84C33.4969 1.91 32.6969 1 31.3069 1H27.4569V8H31.7869C33.2069 8 33.9969 7.01 33.9969 6.04C33.9969 5.31 33.5769 4.64 32.5069 4.38V4.3ZM29.5569 2.7H30.8069C31.1469 2.7 31.3169 2.95 31.3169 3.19C31.3169 3.44 31.1469 3.69 30.8069 3.69H29.5569V2.7ZM31.1569 6.3H29.5569V5.19H31.1569C31.5569 5.19 31.7569 5.46 31.7569 5.74C31.7569 6.02 31.5469 6.3 31.1569 6.3ZM39.8897 4.3C40.6097 3.94 40.8797 3.38 40.8797 2.84C40.8797 1.91 40.0797 1 38.6897 1H34.8397V8H39.1697C40.5897 8 41.3797 7.01 41.3797 6.04C41.3797 5.31 40.9597 4.64 39.8897 4.38V4.3ZM36.9397 2.7H38.1897C38.5297 2.7 38.6997 2.95 38.6997 3.19C38.6997 3.44 38.5297 3.69 38.1897 3.69H36.9397V2.7ZM38.5397 6.3H36.9397V5.19H38.5397C38.9397 5.19 39.1397 5.46 39.1397 5.74C39.1397 6.02 38.9297 6.3 38.5397 6.3ZM44.3225 1H42.2225V8H47.1925V5.95H44.3225V1ZM53.7519 2.9V1H48.0819V8H53.7519V6.1H50.1819V5.35H53.4619V3.75H50.1819V2.9H53.7519ZM71.6561 8H73.7561V1H71.6561V8ZM74.996 8H77.096V3.4H77.296L78.526 8H82.006V1H79.906V5.6H79.706L78.476 1H74.996V8ZM86.1979 8.16C88.3379 8.16 89.4079 7.35 89.4079 5.77C89.4079 4.3 88.5279 3.62 86.4679 3.62C85.5979 3.62 85.1779 3.49 85.1779 3.22C85.1779 2.89 85.5179 2.76 86.4579 2.76C87.3379 2.76 88.3879 2.92 88.9879 3.17V1.29C88.4079 1.02 87.5379 0.84 86.4579 0.84C84.2079 0.84 83.1279 1.85 83.1279 3.23C83.1279 4.78 84.0879 5.51 86.1179 5.51C87.0179 5.51 87.3179 5.58 87.3179 5.93C87.3179 6.27 86.8079 6.31 86.0479 6.31C85.0979 6.31 83.8579 6.11 83.2379 5.88V7.71C84.0079 8.01 85.0579 8.16 86.1979 8.16ZM96.4889 1H89.9889V3H92.1889V8H94.2889V3H96.4889V1ZM101.827 8H104.097L101.477 1H98.6968L96.0768 8H98.3468L98.7168 6.89H101.457L101.827 8ZM99.3568 4.99L100.017 3.03H100.157L100.817 4.99H99.3568ZM108.089 3.99V5.49H109.119V6.11C108.829 6.17 108.559 6.2 108.299 6.2C106.989 6.2 106.339 5.61 106.339 4.5C106.339 3.39 106.989 2.84 108.299 2.84C109.079 2.84 109.709 2.96 110.609 3.28V1.39C109.889 1.03 109.079 0.84 108.149 0.84C105.659 0.84 104.139 2.28 104.139 4.5C104.139 6.72 105.659 8.16 108.149 8.16C109.079 8.16 109.979 7.97 111.119 7.39V3.99H108.089ZM112.164 8H114.264V6H115.164L116.424 8H118.714L117.184 5.68C118.084 5.27 118.624 4.5 118.624 3.5C118.624 2 117.404 1 115.584 1H112.164V8ZM114.264 4.32V2.83H115.664C116.184 2.83 116.524 3.13 116.524 3.57C116.524 4.02 116.184 4.32 115.664 4.32H114.264ZM124.708 8H126.978L124.358 1H121.578L118.958 8H121.228L121.598 6.89H124.338L124.708 8ZM122.238 4.99L122.898 3.03H123.038L123.698 4.99H122.238ZM127.672 8H129.782V3.3H130.022L130.712 8H133.662L134.352 3.3H134.592V8H136.702L136.692 1H132.872L132.272 5.59H132.052L131.502 1H127.682L127.672 8ZM159.362 1V3.72H156.862V1H154.762V8H156.862V5.62H159.362V8H161.462V1H159.362ZM162.701 8H164.801V1H162.701V8ZM166.041 8H168.141V6H169.041L170.301 8H172.591L171.061 5.68C171.961 5.27 172.501 4.5 172.501 3.5C172.501 2 171.281 1 169.461 1H166.041V8ZM168.141 4.32V2.83H169.541C170.061 2.83 170.401 3.13 170.401 3.57C170.401 4.02 170.061 4.32 169.541 4.32H168.141ZM179.055 2.9V1H173.385V8H179.055V6.1H175.485V5.35H178.765V3.75H175.485V2.9H179.055ZM186.195 8.16C188.335 8.16 189.545 7.14 189.545 5.19V1H187.445V4.91C187.445 5.71 187.015 6.13 186.195 6.13C185.375 6.13 184.945 5.71 184.945 4.91V1H182.845V5.19C182.845 7.14 184.055 8.16 186.195 8.16ZM193.639 8.16C195.779 8.16 196.849 7.35 196.849 5.77C196.849 4.3 195.969 3.62 193.909 3.62C193.039 3.62 192.619 3.49 192.619 3.22C192.619 2.89 192.959 2.76 193.899 2.76C194.779 2.76 195.829 2.92 196.429 3.17V1.29C195.849 1.02 194.979 0.84 193.899 0.84C191.649 0.84 190.569 1.85 190.569 3.23C190.569 4.78 191.529 5.51 193.559 5.51C194.459 5.51 194.759 5.58 194.759 5.93C194.759 6.27 194.249 6.31 193.489 6.31C192.539 6.31 191.299 6.11 190.679 5.88V7.71C191.449 8.01 192.499 8.16 193.639 8.16Z" fill="#FFB800"/>
<path d="M0.889648 9H54.2219V9.5H0.889648V9ZM71.0361 9H137.322V9.5H71.0361V9ZM154.142 9H197.109V9.5H154.142V9Z" fill="#FFB800"/>
</svg>
