<svg width="250" height="11" viewBox="0 0 250 11" fill="none" xmlns="http://www.w3.org/2000/svg">
<path d="M0.378352 0.449999V10.25H4.11635C7.28035 10.25 9.31035 8.332 9.31035 5.35C9.31035 2.368 7.28035 0.449999 4.11635 0.449999H0.378352ZM4.11635 1.619C6.68535 1.619 8.01535 3.117 8.01535 5.35C8.01535 7.569 6.68535 9.081 4.11635 9.081H1.61035V1.619H4.11635ZM18.5063 9.095H12.7803V5.896H18.2543V4.734H12.7803V1.605H18.4363V0.449999H11.5483V10.25H18.5063V9.095ZM28.0509 1.381C27.1269 0.744 25.9999 0.309999 24.5229 0.309999C22.4579 0.309999 20.7779 1.367 20.7779 3.257C20.7779 4.93 22.0659 5.679 23.6829 5.875L24.5929 5.987C26.1189 6.176 26.9379 6.61 26.9379 7.52C26.9379 8.626 25.7899 9.221 24.3269 9.221C23.0809 9.221 21.8139 8.724 21.1349 8.136L20.4629 9.116C21.4079 9.907 22.9339 10.39 24.3269 10.39C26.4479 10.39 28.2189 9.368 28.2189 7.415C28.2189 5.686 26.7979 5.014 25.1389 4.811L24.2779 4.706C22.8079 4.524 22.0589 4.069 22.0589 3.18C22.0589 2.123 23.0809 1.479 24.5159 1.479C25.6499 1.479 26.6229 1.843 27.4209 2.382L28.0509 1.381ZM31.6885 0.449999H30.4565V10.25H31.6885V0.449999ZM38.998 0.302999C36.086 0.302999 33.923 2.403 33.923 5.35C33.923 8.549 36.373 10.39 38.942 10.39C41.91 10.39 43.716 8.143 43.716 5.294C43.716 5.196 43.709 5.091 43.702 4.986H39.425V6.134H42.365C42.176 8.052 40.944 9.214 38.942 9.214C36.842 9.214 35.211 7.653 35.211 5.35C35.211 3.047 36.842 1.486 38.998 1.486C40.181 1.486 41.21 1.99 41.889 2.802L42.792 1.927C41.903 0.911999 40.552 0.302999 38.998 0.302999ZM54.2207 0.449999H52.9887V8.143L47.0597 0.443H45.9467V10.25H47.1787L47.1857 2.557L53.1077 10.257H54.2207V0.449999ZM63.9653 9.095H58.2393V5.896H63.7133V4.734H58.2393V1.605H63.8953V0.449999H57.0073V10.25H63.9653V9.095ZM66.4819 0.449999V10.25H67.7139V6.022H68.8619L72.2289 10.25H73.7549L70.3039 6.022H70.3809C72.4809 6.022 73.8039 4.93 73.8039 3.229C73.8039 1.444 72.5859 0.449999 70.3739 0.449999H66.4819ZM70.3459 1.605C71.7669 1.605 72.5229 2.144 72.5229 3.229C72.5229 4.328 71.7879 4.902 70.3459 4.902H67.7139V1.605H70.3459ZM83.0118 1.381C82.0878 0.744 80.9608 0.309999 79.4838 0.309999C77.4188 0.309999 75.7388 1.367 75.7388 3.257C75.7388 4.93 77.0268 5.679 78.6438 5.875L79.5538 5.987C81.0798 6.176 81.8988 6.61 81.8988 7.52C81.8988 8.626 80.7508 9.221 79.2878 9.221C78.0418 9.221 76.7748 8.724 76.0958 8.136L75.4238 9.116C76.3688 9.907 77.8948 10.39 79.2878 10.39C81.4088 10.39 83.1798 9.368 83.1798 7.415C83.1798 5.686 81.7588 5.014 80.0998 4.811L79.2388 4.706C77.7688 4.524 77.0198 4.069 77.0198 3.18C77.0198 2.123 78.0418 1.479 79.4768 1.479C80.6108 1.479 81.5838 1.843 82.3818 2.382L83.0118 1.381ZM95.7225 4.734H90.3955V1.619H96.0025V0.449999H89.1635V10.25H90.3955V5.896H95.7225V4.734ZM98.2416 0.449999V10.25H99.4736V6.022H100.622L103.989 10.25H105.515L102.064 6.022H102.141C104.241 6.022 105.564 4.93 105.564 3.229C105.564 1.444 104.346 0.449999 102.134 0.449999H98.2416ZM102.106 1.605C103.527 1.605 104.283 2.144 104.283 3.229C104.283 4.328 103.548 4.902 102.106 4.902H99.4736V1.605H102.106ZM112.266 0.302999C109.326 0.302999 107.191 2.417 107.191 5.35C107.191 8.283 109.326 10.397 112.266 10.397C115.206 10.397 117.341 8.283 117.341 5.35C117.341 2.417 115.206 0.302999 112.266 0.302999ZM112.266 1.486C114.422 1.486 116.053 3.047 116.053 5.35C116.053 7.653 114.422 9.214 112.266 9.214C110.11 9.214 108.479 7.653 108.479 5.35C108.479 3.047 110.11 1.486 112.266 1.486ZM129.902 0.443H128.019L124.736 7.758L121.453 0.443H119.57V10.25H120.802V1.871L124.085 9.193H125.387L128.67 1.815V10.25H129.902V0.443ZM143.399 9.095H137.673V5.896H143.147V4.734H137.673V1.605H143.329V0.449999H136.441V10.25H143.399V9.095ZM154.189 0.449999H152.957V8.143L147.028 0.443H145.915V10.25H147.147L147.154 2.557L153.076 10.257H154.189V0.449999ZM163.934 9.095H158.208V5.896H163.682V4.734H158.208V1.605H163.864V0.449999H156.976V10.25H163.934V9.095ZM176.783 0.443H174.9L171.617 7.758L168.334 0.443H166.451V10.25H167.683V1.871L170.966 9.193H172.268L175.551 1.815V10.25H176.783V0.443ZM187.192 0.449999H185.757L182.747 5.035L179.737 0.449999H178.26L182.124 6.162V10.25H183.356V6.176L187.192 0.449999ZM196.635 0.302999C193.695 0.302999 191.56 2.417 191.56 5.35C191.56 8.283 193.695 10.397 196.635 10.397C198.329 10.397 199.792 9.641 200.618 8.416L199.61 7.681C198.966 8.64 197.895 9.214 196.635 9.214C194.479 9.214 192.848 7.653 192.848 5.35C192.848 3.047 194.479 1.486 196.635 1.486C197.902 1.486 198.98 2.081 199.617 3.026L200.646 2.333C199.876 1.073 198.35 0.302999 196.635 0.302999ZM207.176 0.302999C204.236 0.302999 202.101 2.417 202.101 5.35C202.101 8.283 204.236 10.397 207.176 10.397C210.116 10.397 212.251 8.283 212.251 5.35C212.251 2.417 210.116 0.302999 207.176 0.302999ZM207.176 1.486C209.332 1.486 210.963 3.047 210.963 5.35C210.963 7.653 209.332 9.214 207.176 9.214C205.02 9.214 203.389 7.653 203.389 5.35C203.389 3.047 205.02 1.486 207.176 1.486ZM218.574 0.449999H217.041L213.058 10.25H214.339L215.41 7.576H220.163L221.241 10.25H222.564L218.574 0.449999ZM217.79 1.668L219.694 6.407H215.879L217.79 1.668ZM231.16 1.381C230.236 0.744 229.109 0.309999 227.632 0.309999C225.567 0.309999 223.887 1.367 223.887 3.257C223.887 4.93 225.175 5.679 226.792 5.875L227.702 5.987C229.228 6.176 230.047 6.61 230.047 7.52C230.047 8.626 228.899 9.221 227.436 9.221C226.19 9.221 224.923 8.724 224.244 8.136L223.572 9.116C224.517 9.907 226.043 10.39 227.436 10.39C229.557 10.39 231.328 9.368 231.328 7.415C231.328 5.686 229.907 5.014 228.248 4.811L227.387 4.706C225.917 4.524 225.168 4.069 225.168 3.18C225.168 2.123 226.19 1.479 227.625 1.479C228.759 1.479 229.732 1.843 230.53 2.382L231.16 1.381ZM240.37 0.449999H232.453V1.619H235.799V10.25H237.031V1.619H240.37V0.449999ZM249.002 1.381C248.078 0.744 246.951 0.309999 245.474 0.309999C243.409 0.309999 241.729 1.367 241.729 3.257C241.729 4.93 243.017 5.679 244.634 5.875L245.544 5.987C247.07 6.176 247.889 6.61 247.889 7.52C247.889 8.626 246.741 9.221 245.278 9.221C244.032 9.221 242.765 8.724 242.086 8.136L241.414 9.116C242.359 9.907 243.885 10.39 245.278 10.39C247.399 10.39 249.17 9.368 249.17 7.415C249.17 5.686 247.749 5.014 246.09 4.811L245.229 4.706C243.759 4.524 243.01 4.069 243.01 3.18C243.01 2.123 244.032 1.479 245.467 1.479C246.601 1.479 247.574 1.843 248.372 2.382L249.002 1.381Z" fill="#E6534C"/>
</svg>
