<svg width="760" height="238" viewBox="0 0 760 238" fill="none" xmlns="http://www.w3.org/2000/svg">
<path fill-rule="evenodd" clip-rule="evenodd" d="M93.32 127.25H0.00799561V105.794H56.888C57.752 105.794 58.184 104.93 58.184 103.922V103.49H0.00799561V40.418C0.00799561 27.746 8.216 19.25 21.896 19.25H114.776V80.306H58.904V39.986H57.896C57.032 39.986 56.6 41.282 56.6 42.578V82.61H114.776V106.082C114.776 118.754 107 127.25 93.32 127.25ZM173.463 105.794H231.639V127.25H116.871V19.25H231.639V80.306H175.767V39.986H173.463V82.61H231.639V103.49H173.463V105.794ZM290.603 105.794H348.779V127.25H234.011V19.25H348.779V80.306H292.907V39.986H290.603V82.61H348.779V103.49H290.603V105.794ZM451.649 127.25H357.761V105.794H415.361C416.225 105.794 416.657 104.786 416.657 103.922V103.49H357.761V19.25H414.353V82.61H416.657V19.25H473.249V106.082C473.249 118.322 465.473 127.25 451.649 127.25ZM569.208 127.25H475.32V40.418C475.32 27.746 483.096 19.25 496.776 19.25H590.809V106.082C590.809 118.754 583.033 127.25 569.208 127.25ZM531.912 42.578V106.37H532.92C533.784 106.37 534.216 105.218 534.216 103.922V39.986H533.208C532.344 39.986 531.912 41.282 531.912 42.578ZM708.515 127.25H593.027V19.25H649.619V106.514H651.923V19.25H708.515V127.25ZM114.92 209.17V229.906H56.744V237.25H0.151996V129.25H114.92V206.866H59.048V149.986H56.744V209.17H114.92ZM176.051 237.25V215.65H173.603V237.25H117.011V129.25H232.499V187.858C232.499 194.626 229.619 200.386 224.867 204.13H232.643V237.25H176.051ZM173.603 149.986V194.77H174.899C175.475 194.77 175.907 193.762 175.907 192.754V149.986H173.603ZM296.34 129.25V237.25H234.996V129.25H296.34ZM393.163 237.25H298.699V129.25H414.331V216.514C414.331 228.178 405.547 237.25 393.163 237.25ZM357.595 214.354V149.986H355.291V216.37H356.587C357.163 216.37 357.595 215.362 357.595 214.354ZM532.031 237.25H475.439V215.65H473.135V237.25H416.543V129.25H532.031V237.25ZM475.439 149.986H473.135V194.77H475.439V149.986ZM628.274 237.25H534.386V215.794H591.986C592.85 215.794 593.282 214.786 593.282 213.922V213.49H534.386V129.25H590.978V192.61H593.282V129.25H649.874V216.082C649.874 228.322 642.098 237.25 628.274 237.25ZM313.491 144.432C310.089 144.432 308.031 142.472 308.031 139.35C308.031 136.228 310.089 134.268 313.491 134.268C314.905 134.268 316.137 134.618 317.047 135.108V137.04C315.969 136.55 314.919 136.27 313.645 136.27C311.419 136.27 310.243 137.348 310.243 139.35C310.243 141.366 311.433 142.43 313.645 142.43C314.919 142.43 315.969 142.136 317.047 141.66V143.592C316.137 144.082 314.905 144.432 313.491 144.432ZM328.617 144.25H326.335L325.663 142.43H320.903L320.231 144.25H317.963L321.771 134.45H324.795L328.617 144.25ZM323.101 136.48L321.575 140.526H324.991L323.479 136.48H323.101ZM340.096 139.49V140.778H333.586V139.49H340.096ZM345.037 134.45H353.815V136.438H350.483V144.25H348.369V136.438H345.037V134.45ZM357.111 144.25H354.689L357.531 139.434L354.689 134.45H357.013L359.155 138.398H359.743L361.899 134.45H364.223L361.381 139.434L364.223 144.25H361.801L359.743 140.526H359.155L357.111 144.25ZM375.875 139.49V140.778H369.365V139.49H375.875ZM383.765 144.25H381.651V134.45H385.319L388.497 141.982H388.819V134.45H390.919V144.25H387.265L384.087 136.718H383.765V144.25ZM400.123 134.45H402.391L398.345 141.226V144.25H396.231V141.226L392.171 134.45H394.439L397.099 138.93H397.477L400.123 134.45Z" fill="#E6534C"/>
<circle cx="721.692" cy="35.5" r="35.5" fill="#FFB800"/>
<path d="M695.506 40H697.536V37.858H695.506V40ZM699.453 40H703.107C705.613 40 707.139 38.67 707.139 36.5C707.139 34.33 705.613 33 703.107 33H699.453V40ZM701.469 38.348V34.652H703.009C704.311 34.652 705.095 35.31 705.095 36.5C705.095 37.69 704.311 38.348 703.009 38.348H701.469ZM715.242 34.582V33H708.928V40H715.242V38.418H710.944V37.186H714.486V35.786H710.944V34.582H715.242ZM720.418 40.182C722.56 40.182 723.834 39.454 723.834 37.774C723.834 36.556 722.924 35.702 720.852 35.702H720.404C719.592 35.702 719.158 35.492 719.158 35.086C719.158 34.68 719.648 34.47 720.614 34.47C721.594 34.47 722.854 34.694 723.568 35.002V33.364C722.728 33 721.664 32.818 720.572 32.818C718.192 32.818 717.058 33.658 717.058 35.17C717.058 36.22 717.786 37.242 720.054 37.242H720.544C721.342 37.242 721.762 37.424 721.762 37.802C721.762 38.25 721.23 38.474 720.194 38.474C719.172 38.474 717.842 38.236 717.058 37.928V39.622C718.164 39.986 719.382 40.182 720.418 40.182ZM725.703 40H727.719V33H725.703V40ZM733.705 36.094V37.27H735.021V38.236C734.727 38.32 734.349 38.376 733.873 38.376C732.389 38.376 731.689 37.704 731.689 36.5C731.689 35.31 732.389 34.61 733.803 34.61C734.727 34.61 735.749 34.792 736.435 35.1V33.364C735.805 33.056 734.769 32.818 733.607 32.818C731.059 32.818 729.575 34.176 729.575 36.5C729.575 38.81 731.059 40.182 733.607 40.182C734.797 40.182 735.945 39.93 736.771 39.454V36.094H733.705ZM738.733 40H740.847V35.73H741.127L743.815 40H746.475V33H744.361V37.27H744.095L741.393 33H738.733V40Z" fill="black"/>
</svg>
