<svg width="721" height="251" viewBox="0 0 721 251" fill="none" xmlns="http://www.w3.org/2000/svg">
<path d="M1.008 109H94.32C108 109 115.776 100.504 115.776 87.832V64.36H57.6V24.328C57.6 23.032 58.032 21.736 58.896 21.736H59.904V62.056H115.776V0.999991H22.896C9.216 0.999991 1.008 9.49599 1.008 22.168V85.24H59.184V85.672C59.184 86.68 58.752 87.544 57.888 87.544H1.008V109ZM232.639 87.544H174.463V85.24H232.639V64.36H174.463V21.736H176.767V62.056H232.639V0.999991H117.871V109H232.639V87.544ZM349.779 87.544H291.603V85.24H349.779V64.36H291.603V21.736H293.907V62.056H349.779V0.999991H235.011V109H349.779V87.544ZM358.761 109H452.649C466.473 109 474.249 100.072 474.249 87.832V0.999991H417.657V64.36H415.353V0.999991H358.761V85.24H417.657V85.672C417.657 86.536 417.225 87.544 416.361 87.544H358.761V109ZM476.321 109H570.209C584.033 109 591.809 100.504 591.809 87.832V0.999991H497.777C484.097 0.999991 476.321 9.49599 476.321 22.168V109ZM532.913 88.12V24.328C532.913 23.032 533.345 21.736 534.209 21.736H535.217V85.672C535.217 86.968 534.785 88.12 533.921 88.12H532.913ZM594.027 109H709.515V0.999991H652.923V88.264H650.619V0.999991H594.027V109ZM115.92 211.656V190.92H57.744V131.736H60.048V188.616H115.92V111H1.152V219H57.744V211.656H115.92ZM177.051 197.4V219H233.643V185.88H225.867C230.619 182.136 233.499 176.376 233.499 169.608V111H118.011V219H174.603V197.4H177.051ZM174.603 176.52V131.736H176.907V174.504C176.907 175.512 176.475 176.52 175.899 176.52H174.603ZM297.34 219V111H235.996V219H297.34ZM299.699 219H394.163C406.547 219 415.331 209.928 415.331 198.264V111H299.699V219ZM358.595 131.736V196.104C358.595 197.112 358.163 198.12 357.587 198.12H356.291V131.736H358.595ZM476.439 219H533.031V111H417.543V219H474.135V197.4H476.439V219ZM474.135 131.736H476.439V176.52H474.135V131.736ZM535.386 219H629.274C643.098 219 650.874 210.072 650.874 197.832V111H594.282V174.36H591.978V111H535.386V195.24H594.282V195.672C594.282 196.536 593.85 197.544 592.986 197.544H535.386V219Z" fill="#E6534C"/>
<path d="M309.031 121.35C309.031 124.472 311.089 126.432 314.491 126.432C315.905 126.432 317.137 126.082 318.047 125.592V123.66C316.969 124.136 315.919 124.43 314.645 124.43C312.433 124.43 311.243 123.366 311.243 121.35C311.243 119.348 312.419 118.27 314.645 118.27C315.919 118.27 316.969 118.55 318.047 119.04V117.108C317.137 116.618 315.905 116.268 314.491 116.268C311.089 116.268 309.031 118.228 309.031 121.35ZM327.335 126.25H329.617L325.795 116.45H322.771L318.963 126.25H321.231L321.903 124.43H326.663L327.335 126.25ZM322.575 122.526L324.101 118.48H324.479L325.991 122.526H322.575ZM341.096 122.778V121.49L334.586 121.49V122.778L341.096 122.778ZM354.815 116.45H346.037V118.438H349.369V126.25H351.483V118.438H354.815V116.45ZM355.689 126.25H358.111L360.155 122.526H360.743L362.801 126.25H365.223L362.381 121.434L365.223 116.45H362.899L360.743 120.398H360.155L358.013 116.45H355.689L358.531 121.434L355.689 126.25ZM376.875 122.778V121.49H370.365V122.778H376.875ZM382.651 126.25H384.765V118.718H385.087L388.265 126.25H391.919V116.45H389.819V123.982H389.497L386.319 116.45H382.651V126.25ZM403.391 116.45H401.123L398.477 120.93H398.099L395.439 116.45H393.171L397.231 123.226V126.25H399.345V123.226L403.391 116.45Z" fill="#342F2F"/>
</svg>
