<svg width="709" height="219" viewBox="0 0 709 219" fill="none" xmlns="http://www.w3.org/2000/svg">
<path fill-rule="evenodd" clip-rule="evenodd" d="M93.32 108.25H0.00799561V86.794H56.888C57.752 86.794 58.184 85.93 58.184 84.922V84.49H0.00799561V21.418C0.00799561 8.746 8.216 0.25 21.896 0.25H114.776V61.306H58.904V20.986H57.896C57.032 20.986 56.6 22.282 56.6 23.578V63.61H114.776V87.082C114.776 99.754 107 108.25 93.32 108.25ZM173.463 86.794H231.639V108.25H116.871V0.25H231.639V61.306H175.767V20.986H173.463V63.61H231.639V84.49H173.463V86.794ZM290.603 86.794H348.779V108.25H234.011V0.25H348.779V61.306H292.907V20.986H290.603V63.61H348.779V84.49H290.603V86.794ZM451.649 108.25H357.761V86.794H415.361C416.225 86.794 416.657 85.786 416.657 84.922V84.49H357.761V0.25H414.353V63.61H416.657V0.25H473.249V87.082C473.249 99.322 465.473 108.25 451.649 108.25ZM569.208 108.25H475.32V21.418C475.32 8.746 483.096 0.25 496.776 0.25H590.809V87.082C590.809 99.754 583.033 108.25 569.208 108.25ZM531.912 23.578V87.37H532.92C533.784 87.37 534.216 86.218 534.216 84.922V20.986H533.208C532.344 20.986 531.912 22.282 531.912 23.578ZM708.515 108.25H593.027V0.25H649.619V87.514H651.923V0.25H708.515V108.25ZM114.92 190.17V210.906H56.744V218.25H0.151996V110.25H114.92V187.866H59.048V130.986H56.744V190.17H114.92ZM176.051 218.25V196.65H173.603V218.25H117.011V110.25H232.499V168.858C232.499 175.626 229.619 181.386 224.867 185.13H232.643V218.25H176.051ZM173.603 130.986V175.77H174.899C175.475 175.77 175.907 174.762 175.907 173.754V130.986H173.603ZM296.34 110.25V218.25H234.996V110.25H296.34ZM393.163 218.25H298.699V110.25H414.331V197.514C414.331 209.178 405.547 218.25 393.163 218.25ZM357.595 195.354V130.986H355.291V197.37H356.587C357.163 197.37 357.595 196.362 357.595 195.354ZM532.031 218.25H475.439V196.65H473.135V218.25H416.543V110.25H532.031V218.25ZM475.439 130.986H473.135V175.77H475.439V130.986ZM628.274 218.25H534.386V196.794H591.986C592.85 196.794 593.282 195.786 593.282 194.922V194.49H534.386V110.25H590.978V173.61H593.282V110.25H649.874V197.082C649.874 209.322 642.098 218.25 628.274 218.25ZM313.491 125.432C310.089 125.432 308.031 123.472 308.031 120.35C308.031 117.228 310.089 115.268 313.491 115.268C314.905 115.268 316.137 115.618 317.047 116.108V118.04C315.969 117.55 314.919 117.27 313.645 117.27C311.419 117.27 310.243 118.348 310.243 120.35C310.243 122.366 311.433 123.43 313.645 123.43C314.919 123.43 315.969 123.136 317.047 122.66V124.592C316.137 125.082 314.905 125.432 313.491 125.432ZM328.617 125.25H326.335L325.663 123.43H320.903L320.231 125.25H317.963L321.771 115.45H324.795L328.617 125.25ZM323.101 117.48L321.575 121.526H324.991L323.479 117.48H323.101ZM340.096 120.49V121.778H333.586V120.49H340.096ZM345.037 115.45H353.815V117.438H350.483V125.25H348.369V117.438H345.037V115.45ZM357.111 125.25H354.689L357.531 120.434L354.689 115.45H357.013L359.155 119.398H359.743L361.899 115.45H364.223L361.381 120.434L364.223 125.25H361.801L359.743 121.526H359.155L357.111 125.25ZM375.875 120.49V121.778H369.365V120.49H375.875ZM383.765 125.25H381.651V115.45H385.319L388.497 122.982H388.819V115.45H390.919V125.25H387.265L384.087 117.718H383.765V125.25ZM400.123 115.45H402.391L398.345 122.226V125.25H396.231V122.226L392.171 115.45H394.439L397.099 119.93H397.477L400.123 115.45Z" fill="#E6534C"/>
</svg>
