<svg width="936" height="218" viewBox="0 0 936 218" fill="none" xmlns="http://www.w3.org/2000/svg">
<path d="M0.00800003 108H93.32C107 108 114.776 99.504 114.776 86.832V63.36H56.6V23.328C56.6 22.032 57.032 20.736 57.896 20.736H58.904V61.056H114.776V-8.58307e-06H21.896C8.216 -8.58307e-06 0.00800003 8.49599 0.00800003 21.168V84.24H58.184V84.672C58.184 85.68 57.752 86.544 56.888 86.544H0.00800003V108ZM231.639 86.544H173.463V84.24H231.639V63.36H173.463V20.736H175.767V61.056H231.639V-8.58307e-06H116.871V108H231.639V86.544ZM234.011 108H348.779V23.76H292.907V87.12H290.603V-8.58307e-06H234.011V108ZM465.639 86.544H407.463V84.24H465.639V63.36H407.463V20.736H409.767V61.056H465.639V-8.58307e-06H350.871V108H465.639V86.544ZM467.867 108H561.755C575.579 108 583.355 99.504 583.355 86.832V67.68H526.763V84.672C526.763 85.968 526.331 87.12 525.467 87.12H524.459V23.328C524.459 22.032 524.891 20.736 525.755 20.736H526.763V65.376H583.355V-8.58307e-06H489.323C475.643 -8.58307e-06 467.867 8.49599 467.867 21.168V108ZM700.342 87.264V30.24H644.47V85.104C644.47 86.112 644.038 87.12 643.462 87.12H642.166V27.936H700.342V6.912H642.166V-8.58307e-06H585.574V108H679.318C691.702 108 700.342 98.928 700.342 87.264ZM817.483 86.544H759.307V84.24H817.483V63.36H759.307V20.736H761.611V61.056H817.483V-8.58307e-06H702.715V108H817.483V86.544ZM819.855 108H914.319C926.703 108 935.487 98.928 935.487 87.264V-8.58307e-06H819.855V108ZM878.751 20.736V85.104C878.751 86.112 878.319 87.12 877.743 87.12H876.447V20.736H878.751ZM0.152 218H147.752V110H98.504V197.12H96.2V110H51.704V197.12H49.4V110H0.152V218ZM149.914 218H243.802C257.626 218 265.402 209.504 265.402 196.832V110H171.37C157.69 110 149.914 118.496 149.914 131.168V218ZM206.506 197.12V133.328C206.506 132.032 206.938 130.736 207.802 130.736H208.81V194.672C208.81 195.968 208.378 197.12 207.514 197.12H206.506ZM326.661 196.4V218H383.253V184.88H375.477C380.229 181.136 383.109 175.376 383.109 168.608V110H267.621V218H324.213V196.4H326.661ZM324.213 175.52V130.736H326.517V173.504C326.517 174.512 326.085 175.52 325.509 175.52H324.213ZM444.645 196.4V218H501.237V184.88H494.757C498.789 181.136 501.093 175.808 501.093 169.76V110H444.501V173.504C444.501 174.512 444.069 175.52 443.493 175.52H442.197V110H385.605V218H442.197V196.4H444.645Z" fill="#342F2F"/>
</svg>
